<?xml version="1.0" encoding="utf-8"?>
<!-- Generator: Adobe Illustrator 14.0.0, SVG Export Plug-In . SVG Version: 6.00 Build 43363)  -->
<!DOCTYPE svg PUBLIC "-//W3C//DTD SVG 1.1//EN" "http://www.w3.org/Graphics/SVG/1.1/DTD/svg11.dtd">
<svg version="1.1" id="Layer_1" xmlns="http://www.w3.org/2000/svg" xmlns:xlink="http://www.w3.org/1999/xlink" x="0px" y="0px"
	 width="179px" height="80px" viewBox="0 0 179 80" enable-background="new 0 0 179 80" xml:space="preserve">
<path fill="#34813E" d="M140.885,33.328c-7.486-4.815-59.201-11.06-65.785-8.866c-6.585,2.195-11.707-2.194-13.901-4.389
	s-10.243-2.195-12.437,0.732c-2.194,2.927-5.853,2.926-8.781-1.464c-4.483-6.716-13.032,3.838-17.079,6.065
	c-1.267-1.659-1.904-3.796-3.39-5.343c-1.751-1.824-4.048-2.916-6.601-2.916c-4.483,0-9.417,5.9-12.911,11.129v32.277
	c1.234,1.057,2.597,2.19,4.132,3.419c10.964,8.769,19.006,3.666,19.022,3.656c3.554-2.259,3.219-5.143,8.41-5.076
	c4.981,0.063,24.635,11.773,26.708,1.42c0.732-3.66,5.121-2.196,24.144,0c19.021,2.195,49.211-9.141,61.615-15.75
	C156.433,41.614,148.371,38.143,140.885,33.328z"/>
</svg>
