<?xml version="1.0" encoding="utf-8"?>
<!-- Generator: Adobe Illustrator 14.0.0, SVG Export Plug-In . SVG Version: 6.00 Build 43363)  -->
<!DOCTYPE svg PUBLIC "-//W3C//DTD SVG 1.1//EN" "http://www.w3.org/Graphics/SVG/1.1/DTD/svg11.dtd">
<svg version="1.1" id="Layer_1" xmlns="http://www.w3.org/2000/svg" xmlns:xlink="http://www.w3.org/1999/xlink" x="0px" y="0px"
	 width="179px" height="80px" viewBox="0 0 179 80" enable-background="new 0 0 179 80" xml:space="preserve">
<path fill="#00A651" d="M126.91,36.722c-1.754-9.829-11.588-16.321-28.712-19.321c-17.132-3.003-14.751,3.658-14.751,3.658
	s0,0-3.171-2.694c-3.176-2.693-13.32,4.769-34.084,15.888c-4.958,2.651-9.78,4.18-14.263,5.004L0,36.047v4.081l18.474,1.857
	c1.746,0.83,3.497,1.703,5.053,2.591c6.662,3.798,36.646,20.901,44.417,21.214c7.77,0.315,9.51-6.353,9.51-6.353
	s8.73,9.986,18.555,4.11c9.824-5.871,6.018-13.641,6.018-13.641C107.572,51.012,128.664,46.554,126.91,36.722z"/>
</svg>
