<?xml version="1.0" encoding="utf-8"?>
<!-- Generator: Adobe Illustrator 14.0.0, SVG Export Plug-In . SVG Version: 6.00 Build 43363)  -->
<!DOCTYPE svg PUBLIC "-//W3C//DTD SVG 1.1//EN" "http://www.w3.org/Graphics/SVG/1.1/DTD/svg11.dtd">
<svg version="1.1" id="Layer_2" xmlns="http://www.w3.org/2000/svg" xmlns:xlink="http://www.w3.org/1999/xlink" x="0px" y="0px"
	 width="278.986px" height="367.48px" viewBox="0 0 278.986 367.48" enable-background="new 0 0 278.986 367.48"
	 xml:space="preserve">
<path fill="#602D90" d="M242.258,59.476c-2.729-3.469-7.645-6.491-11.682-8.108c-12.924-5.172-28.125-1.768-41.211,0.898
	c-12.201,2.485-24.135,6.111-35.912,10.106c-9.74,3.304-19.524,6.445-29.263,9.745c-34.458,11.676-67.815,25.645-94.252,51.425
	c-3.904,3.806-7.699,7.749-11.222,11.91c-0.489,0.581-4.096,4.143-3.871,5.026c0,0-0.008-0.038-1.73-6.694
	c-1.73-6.694-7.708-8.324-7.708-8.324s6.308-3.218,6.232-12.719c-0.017-1.917-0.512-3.371-1.271-4.501
	c6.078-8.042,26.073-35.488,40.731-67.22c0,0,0.69-1.628-0.647-2.296c-1.338-0.669-2.146,0.663-2.146,0.663
	C32,70.065,15.248,99.087,10.119,107.904c-3.141-4.088-10.094-3.271-10.094-3.271L0,288.723
	c19.172-2.575,10.976-95.673,10.976-95.673s15.314,74.595,24.059,96.137c4.351,10.742,13.045,19.896,22.382,26.533
	c20.059,14.261,46.165,13.537,68.158,4.48c22.963-9.45,48.272-28.096,51.749-54.491c2.939-22.332-10.035-45.161-21.871-63.188
	c0,0,11.564,1.769,48.705-14.178C241.297,172.394,263.53,86.514,242.258,59.476z"/>
</svg>
