<?xml version="1.0" encoding="utf-8"?>
<!-- Generator: Adobe Illustrator 14.0.0, SVG Export Plug-In . SVG Version: 6.00 Build 43363)  -->
<!DOCTYPE svg PUBLIC "-//W3C//DTD SVG 1.1//EN" "http://www.w3.org/Graphics/SVG/1.1/DTD/svg11.dtd">
<svg version="1.1" id="Layer_2" xmlns="http://www.w3.org/2000/svg" xmlns:xlink="http://www.w3.org/1999/xlink" x="0px" y="0px"
	 width="278.986px" height="367.48px" viewBox="0 0 278.986 367.48" enable-background="new 0 0 278.986 367.48"
	 xml:space="preserve">
<path fill-rule="evenodd" clip-rule="evenodd" fill="#59B8E8" d="M254.327,204.74c-25-18-92-33-157.5-46.5
	c-36.4-7.502-59.023-7.434-72.004-7.067c-3.117,0.088-6.17-0.024-9.264-0.391c-2.181-0.259-4.998-0.554-5.902-2.916
	c-0.182-0.476-0.167-0.941-0.023-1.423c0.151-0.503,0.367-1.021,0.641-1.468c0.855-1.397,1.425-2.676,1.601-4.341
	c0.207-1.962,0.122-3.933-0.049-5.894c-0.513-5.896-3.782-8.363-6.849-9.379c3.976-11.634,14.249-45.303,14.355-82.932
	c0,0,0.02-1.385-1.238-1.515s-1.178,1.121-1.178,1.121c0.983,37.629-8.543,71.513-12.265,83.214
	c-1.921-0.576-3.719-0.601-4.653-0.56v142.447c4.574,0,6.827-11.896,6.827-11.896s9.5,10,16,16.5s19.5,8.5,35.5,12s24-2,30-1.5
	s14-3.5,22.5-4.5s18.5-4.5,30.5-3.5s15-3,25-3s14-7,19-6.5s11.5-4.5,16.5-4.5s8.5-3,18.5-4s9.5-5,16.5-6s9-6.5,18-12.5
	S279.327,222.74,254.327,204.74z"/>
</svg>
