<?xml version="1.0" encoding="utf-8"?>
<!-- Generator: Adobe Illustrator 14.0.0, SVG Export Plug-In . SVG Version: 6.00 Build 43363)  -->
<!DOCTYPE svg PUBLIC "-//W3C//DTD SVG 1.1//EN" "http://www.w3.org/Graphics/SVG/1.1/DTD/svg11.dtd">
<svg version="1.1" id="Layer_2" xmlns="http://www.w3.org/2000/svg" xmlns:xlink="http://www.w3.org/1999/xlink" x="0px" y="0px"
	 width="278.986px" height="367.48px" viewBox="0 0 278.986 367.48" enable-background="new 0 0 278.986 367.48"
	 xml:space="preserve">
<path fill="#00A8DE" d="M252.523,88.698c-6.768-8.933-36.271-7.664-83.75-1.184c-47.478,6.481-91.518,23.311-114.14,34.934
	c-22.622,11.624-34.775,24.703-34.775,24.703c-1.895-5.598-10.456-8.348-10.456-8.348s5.239-2.725,5.254-13.08
	c0-1.248-0.218-2.328-0.592-3.284c59.436-27.69,100.28-94.09,95.311-96.75c-5.113-2.744-1.779-4.171-27.175,33.274
	c-20.492,30.217-55.665,54.494-68.49,62.753C10.506,115.491,0,115.74,0,115.74v5.816v165.528c0.084,1.084,0.169,2.189,0.268,3.389
	c0.934,11.426,19.927,43.219,48.351,49.801c28.423,6.586,80.054,8.676,100.703-41.021c20.65-49.703-16.072-76.879-16.072-76.879
	s31.634,10.629,65.576-17.156C232.769,177.431,259.294,97.636,252.523,88.698z"/>
</svg>
