<?xml version="1.0" encoding="utf-8"?>
<!-- Generator: Adobe Illustrator 14.0.0, SVG Export Plug-In . SVG Version: 6.00 Build 43363)  -->
<!DOCTYPE svg PUBLIC "-//W3C//DTD SVG 1.1//EN" "http://www.w3.org/Graphics/SVG/1.1/DTD/svg11.dtd">
<svg version="1.1" id="Layer_2" xmlns="http://www.w3.org/2000/svg" xmlns:xlink="http://www.w3.org/1999/xlink" x="0px" y="0px"
	 width="278.986px" height="367.48px" viewBox="0 0 278.986 367.48" enable-background="new 0 0 278.986 367.48"
	 xml:space="preserve">
<path fill="#FCE82B" d="M216.666,48.074C127.182,50.536,10.94,139.259,10.94,139.259s0.707-8.552,0.122-22.382
	c-0.147-3.45-0.917-6.062-1.989-8.038c8.884-11.958,31.101-43.323,47.682-79.221c0,0,0.836-1.973-0.786-2.784
	c-1.621-0.811-2.601,0.803-2.601,0.803C34.991,62.208,16.156,95.034,8.597,108.077C5.52,103.254,0.661,102.74,0,102.691V275.21
	c19.005-17.514,13.099-61.183,13.099-61.183s9.539,19.523,19.14,42.006c9.603,22.474,42.451,58.009,80.784,60.156
	c38.332,2.139,76.937-24.884,83.036-57.115c6.089-32.221-21.45-53.446-21.45-53.446s0,0,15.208-5.026
	c15.22-5.036,50.905-44.655,59.851-67.225C258.618,110.802,306.142,45.607,216.666,48.074z"/>
</svg>
