<?xml version="1.0" encoding="utf-8"?>
<!-- Generator: Adobe Illustrator 14.0.0, SVG Export Plug-In . SVG Version: 6.00 Build 43363)  -->
<!DOCTYPE svg PUBLIC "-//W3C//DTD SVG 1.1//EN" "http://www.w3.org/Graphics/SVG/1.1/DTD/svg11.dtd">
<svg version="1.1" id="Layer_2" xmlns="http://www.w3.org/2000/svg" xmlns:xlink="http://www.w3.org/1999/xlink" x="0px" y="0px"
	 width="300.879px" height="328.483px" viewBox="0 180.548 300.879 328.483" enable-background="new 0 180.548 300.879 328.483"
	 xml:space="preserve">
<path fill="#B5D452" d="M6.716,344.447c0,0,1.506-0.213,3.318,0.553c6.393-15.444,47.472-113.278,79.884-156.241
	c0.332-0.44,0.959-0.529,1.4-0.196s0.529,0.959,0.195,1.4c-32.471,43.041-73.769,141.614-79.742,156.069
	c1.601,1.261,3.158,3.487,3.943,7.415c2,10,2,10,2,10s62-94,169-144s104,13,104,13s24,32-13,80s-58,62-58,62s17,46-37,95
	s-118,46-152-5c0,0-15.575-19.484-18.867-44.988c-0.079-0.644-0.133-1.012-0.133-1.012c0.038,0.34,0.09,0.674,0.133,1.012
	c0.613,4.977,2.837,27.248-5.133,36.988c0,0-0.803,1.5-6.716,2.062V344.188C0.001,344.188,3.013,344.142,6.716,344.447z"/>
</svg>
