<?xml version="1.0" encoding="utf-8"?>
<!-- Generator: Adobe Illustrator 14.0.0, SVG Export Plug-In . SVG Version: 6.00 Build 43363)  -->
<!DOCTYPE svg PUBLIC "-//W3C//DTD SVG 1.1//EN" "http://www.w3.org/Graphics/SVG/1.1/DTD/svg11.dtd">
<svg version="1.1" id="Layer_1" xmlns="http://www.w3.org/2000/svg" xmlns:xlink="http://www.w3.org/1999/xlink" x="0px" y="0px"
	 width="300px" height="516px" viewBox="0 0 300 516" enable-background="new 0 0 300 516" xml:space="preserve">
<path fill="#E64097" d="M138.28,214.771c6.687,0.358,15.171,2.011,20.697-2.835c4.323-3.793,7.838-8.413,10.683-13.42
	c2.135-3.753,4.682-7.888,5.516-12.191c1.167-6.042,1.884-11.416,7.345-22.351c5.468-10.939,35.554-75.466,36.773-87.336
	c2.231-21.821-15.829-37.356-36.238-34.706c-4.307,0.562-8.072,2.439-12.239,3.245c-9.607,1.859-18.167-4.261-28.139-0.965
	c-15.84,5.231-31.081,14.069-45.7,21.965c-4.893,2.642-10.236,4.488-14.452,8.235c-4.222,3.753-6.133,4.791-12.289,4.636
	c-5.686-0.145-10.686,6.168-13.045,8.495c-4.392,4.333-7.056,8.907-11.547,13.139c-8.294,7.816-15.455,14.829-16.129,26.906
	c-0.781,14.114-16.254,15.334-16.254,15.334s-3.994-0.273-7.222-4.378c-0.74-1.188-1.41-3.266,0.854-5.435
	c4.225-4.053-0.726-7.26-2.613-8.276c-0.259-0.139-0.54-0.228-0.817-0.326C21.076,59.29,40.447,37.504,40.447,37.504
	s2.766-3.074,0.614-3.997c-2.151-0.92-3.688,2.153-3.688,2.153c-17.453,22.072-30.47,72.834-34.201,88.73
	c-1.319-0.41-2.67-0.444-3.171-0.434V269.61c0.015,0,0.028,0.011,0.043,0.008c7.4-0.84,6.286-14.251,6.286-14.251l1.792-57.358
	l11.132,58.78c0.733,3.508,1.381,7.029,2.02,10.556c2.209,12.201,4.534,24.394,7.198,36.505c1.076,4.89,2.164,9.799,3.665,14.578
	c0.883,2.806,1.891,6.248,3.656,8.661c6.045,8.257,15.024,14.097,23.113,20.144c2.76,2.064,5.481,3.942,4.684,7.804
	c-0.538,2.601-2.365,5.844-4.767,7.192c-2.343,1.319-3.279,5.025-3.153,7.461c0.15,2.941,1.88,4.453,4.338,5.748
	c3.282,1.726,4.917,4.309,5.734,7.869c0.402,1.744,0.948,5.066,3.563,4.814c1.597-0.152,3.301-1.722,4.552-2.604
	c1.693-1.196,3.312-2.467,4.895-3.802c4.087-3.445,8.83-3.601,13.708-2.049c4.462,1.421,9.914,3.911,12.554,8.027
	c3.939,6.141,10.44-1.771,14.902-3.124c5.125-1.554,10.731,3.202,13.112,7.336c0.658,1.146,1.256,2.328,1.888,3.491
	c4.526,8.375,9.046,16.758,13.524,25.162c3.696,6.938,7.387,13.878,11.095,20.807c3.739,6.986,7.474,13.979,11.18,20.981
	c2.9,5.47,5.789,10.939,8.646,16.429c1.354,2.597,2.878,5.202,3.985,7.917c3.21,7.872,7.532,16.878,14.364,22.225
	c3.177,2.487,7.724,2.214,10.083-1.063c2.691-3.746,2.407-8.392,2.002-12.732c-0.509-5.414-2.258-10.103-5.328-14.521
	c-1.707-2.458-3.237-5.065-4.879-7.572c-2.456-3.745-4.843-7.536-7.287-11.288c-3.006-4.619-5.964-9.271-8.971-13.893
	c-3.349-5.149-6.649-10.319-9.993-15.468c-3.461-5.331-6.89-10.681-10.346-16.015c-3.354-5.171-6.687-10.349-10.036-15.523
	c-3.017-4.668-6.039-9.335-9.057-14.006c-2.466-3.819-4.943-7.631-7.403-11.45c-1.696-2.63-3.403-5.251-5.099-7.876
	c-3.102-4.792-6.013-11.115-0.7-15.591c1.766-1.486,4.146-1.845,6.323-2.343c1.161-0.262,2.294-0.587,3.354-1.011
	c2.771-1.109,5.044-2.916,5.943-6.154c0.829-2.989,0.353-6.318-1.622-8.75c-2.61-3.212-6.467-5.149-10.057-6.906
	c0.679,0.332,7.859-9.985,8.517-10.988c2.546-3.871,1.92-8.016-0.375-11.836c-0.62-1.026-1.343-2.003-2.027-2.987
	c-0.268-0.393-1.717-1.888-1.648-2.398c2.113-2.413,4.553-4.712,6.618-7.228c2.991-3.652,5.034-7.463,4.419-12.318
	c-0.326-2.605-1.166-7.314-3.189-9.303c0.268,0.264,4.826-6.767,5.078-7.572c1.139-3.632,0.331-7.562-0.236-11.224
	c-0.406-2.652-0.84-5.349-1.91-7.829c-2.011-4.675-6.216-7.928-10.062-11.046c-4.312-3.493-8.714-6.867-13.203-10.133
	c-4.349-3.172-8.762-6.23-13.283-9.158c1.493,0.145,2.99,0.249,4.483,0.388C124.622,213.755,131.453,214.408,138.28,214.771z"/>
</svg>
