<?xml version="1.0" encoding="iso-8859-1"?>
<!-- Generator: Adobe Illustrator 19.1.0, SVG Export Plug-In . SVG Version: 6.00 Build 0)  -->
<svg version="1.1" xmlns="http://www.w3.org/2000/svg" xmlns:xlink="http://www.w3.org/1999/xlink" x="0px" y="0px"
	 viewBox="0 0 2029.081 1372.611" style="enable-background:new 0 0 2029.081 1372.611;" xml:space="preserve">
<g id="All">
	<g id="engraving">
		<g id="main-engraving">
			<path style="fill:none;stroke:#000000;stroke-width:2;stroke-miterlimit:10;" d="M373.836,954.245
				c0-10.926,4.274-10.493,5.868-10.493c1.593,0,5.749,0.359,5.749,11.359h3.231c0,0-0.477-11.03,5.085-11.03
				c5.562,0,5.668,6.03,5.668,11.03h3.247c0,0-1.287-11.03,5.334-11.03s6.038,7.03,6.038,11.03h2.628c0,0-0.509-11.03,5.476-11.03
				c5.985,0,6.038,7.03,6.038,11.03h2.485c0,0,0.163-11.03,5.195-11.03c5.032,0,5.721,6.03,5.721,11.03h3.084
				c0,0-1.072-12.086,4.755-12.086c5.827,0,5.561,7.191,5.561,9.975s0,28.111,0,28.111h-81.316L373.836,954.245z"/>
		</g>
		<g id="center-engraving">
			<path style="fill:none;stroke:#000000;stroke-width:2;stroke-miterlimit:10;" d="M975.743,844.051
				c0-10.926,4.135-10.396,5.676-10.396c1.542,0,5.562,0.456,5.562,11.456h3.126c0,0-0.461-11.03,4.919-11.03
				c5.38,0,5.483,6.03,5.483,11.03h3.141c0,0-1.245-11.03,5.16-11.03s5.842,7.03,5.842,11.03h2.542c0,0-0.493-11.03,5.298-11.03
				c5.79,0,5.842,7.03,5.842,11.03h2.404c0,0,0.158-11.03,5.026-11.03s5.534,6.03,5.534,11.03h2.984c0,0-1.167-12.086,4.469-12.086
				s5.25,7.191,5.25,9.975s0,97.111,0,97.111h-78.404L975.743,844.051z"/>
			<path style="fill:none;stroke:#000000;stroke-width:2;stroke-miterlimit:10;" d="M817.836,953.189
				c0-10.926,4.274-9.966,5.868-9.966s5.749,0.887,5.749,11.887h3.231c0,0-0.477-11.03,5.085-11.03s5.668,6.03,5.668,11.03h3.247
				c0,0-1.287-11.03,5.334-11.03c6.621,0,6.038,7.03,6.038,11.03h2.628c0,0-0.509-11.03,5.476-11.03c5.985,0,6.038,7.03,6.038,11.03
				h2.485c0,0,0.163-12.086,5.195-12.086c5.032,0,5.721,6.394,5.721,10.503l0.279,62.399l-68.195,0.098L817.836,953.189z"/>
			<path style="fill:none;stroke:#000000;stroke-width:2;stroke-miterlimit:10;" d="M1144.836,952.189
				c0-10.926,4.274-9.966,5.868-9.966c1.593,0,5.749,0.887,5.749,11.887h3.231c0,0-0.477-11.03,5.085-11.03
				c5.562,0,5.668,6.03,5.668,11.03h3.247c0,0-1.287-11.03,5.334-11.03s6.038,7.03,6.038,11.03h2.628c0,0-0.509-11.03,5.476-11.03
				s6.038,7.03,6.038,11.03h2.485c0,0,0.163-12.086,5.195-12.086c5.032,0,5.721,6.394,5.721,10.503l0.279,62.399l-68.195,0.098
				L1144.836,952.189z"/>
			<path style="fill:none;stroke:#000000;stroke-width:2;stroke-miterlimit:10;" d="M921.743,844.051
				c0-10.926,4.135-10.396,5.676-10.396c1.542,0,5.562,0.456,5.562,11.456h3.126c0,0-0.461-12.086,4.919-12.086
				c5.38,0,5.483,6.973,5.483,11.558l0.386,95.528h-25.3L921.743,844.051z"/>
			<path style="fill:none;stroke:#000000;stroke-width:2;stroke-miterlimit:10;" d="M1084.743,844.051
				c0-10.926,4.135-10.396,5.676-10.396s5.562,0.456,5.562,11.456h3.126c0,0-0.461-12.086,4.919-12.086s5.483,6.973,5.483,11.558
				l0.386,95.528h-25.3L1084.743,844.051z"/>
		</g>
		<g id="tower-engraving">
			<path style="fill:none;stroke:#000000;stroke-width:2;stroke-miterlimit:10;" d="M896.184,88.111H909V43.5
				c0,0-0.604-11.716-6.333-11.716c-5.729,0-6.733,12.873-6.733,12.873L896.184,88.111z"/>
			<path style="fill:none;stroke:#000000;stroke-width:2;stroke-miterlimit:10;" d="M1114.184,88.111H1127V43.5
				c0,0-0.604-11.716-6.333-11.716s-6.733,12.873-6.733,12.873L1114.184,88.111z"/>
			<path style="fill:none;stroke:#000000;stroke-width:2;stroke-miterlimit:10;" d="M1012.399,497.508
				c0,0-67.399,11.837-77.399,85.275v97.327h155V582.5C1090,582.5,1090.927,516.583,1012.399,497.508z"/>
			<path style="fill:none;stroke:#000000;stroke-width:2;stroke-miterlimit:10;" d="M1012.922,518.264
				c0,0-51.922,10.433-59.922,75.164v85.682h120v-85.932C1073,593.179,1073.718,535.077,1012.922,518.264z"/>
			<path style="fill:none;stroke:#000000;stroke-width:2;stroke-miterlimit:10;" d="M1041,141.111h12v14.061c0,0-3.11-5.444-6-5.444
				s-6,5.444-6,5.444V141.111z"/>
			<path style="fill:none;stroke:#000000;stroke-width:2;stroke-miterlimit:10;" d="M1024,141.111h13v14.061
				c0,0-3.855-5.444-6.5-5.444s-6.5,5.444-6.5,5.444V141.111z"/>
			<path style="fill:none;stroke:#000000;stroke-width:2;stroke-miterlimit:10;" d="M1030.5,153.675c0,0-2.5,0-4.5,4.444v2.381
				l-2,2.125V190.5c0,0,5-5.15,13-5.15V162.5l-2-1.716V158.5C1035,158.5,1033.322,153.925,1030.5,153.675z"/>
			<path style="fill:none;stroke:#000000;stroke-width:2;stroke-miterlimit:10;" d="M1047.5,153.675c0,0,4.5,0.901,4.5,4.444v2.381
				l2,2.125V190.5c0,0-4-5.15-13-5.15V162.5l2-1.716V158.5C1043,158.5,1044.373,154.065,1047.5,153.675z"/>
			<polygon style="fill:none;stroke:#000000;stroke-width:2;stroke-miterlimit:10;" points="1036.684,191.111 1043.684,191.111 
				1040.184,193.927 			"/>
			<path style="fill:none;stroke:#000000;stroke-width:2;stroke-miterlimit:10;" d="M1032.595,190.388c0,0-4.633,0.204-7.062,4.576
				c0,0-1.533,1.71,0.467,1.346v32.19c0,0,6-4.117,11,0v-32c0,0,2.326-0.014,1.355-1.714
				C1037.383,193.086,1035.927,190.659,1032.595,190.388z"/>
			<path style="fill:none;stroke:#000000;stroke-width:2;stroke-miterlimit:10;" d="M1048.595,190.388c0,0-4.633,0.204-7.062,4.576
				c0,0-1.533,1.71,0.467,1.346v32.19c0,0,6-4.117,11,0v-32c0,0,2.326-0.014,1.355-1.714
				C1053.383,193.086,1051.927,190.659,1048.595,190.388z"/>
			<path style="fill:none;stroke:#000000;stroke-width:2;stroke-miterlimit:10;" d="M1028.335,240.486"/>
			<path style="fill:none;stroke:#000000;stroke-width:2;stroke-miterlimit:10;" d="M1032.464,230.903c0,0-9.118,0.454-4.72,9.617
				l-1.744,2.05v21.93c0,0,2.019-4.327,5.281-4.951s5.719-5.244,5.719-5.244V242.5l-0.703-2.014
				C1036.297,240.486,1042.35,231.416,1032.464,230.903z"/>
			<path style="fill:none;stroke:#000000;stroke-width:2;stroke-miterlimit:10;" d="M1049.005,230.903c0,0,7.884,0.454,3.485,9.617
				l0.51,2.05v21.93c0,0-2.019-4.327-5.281-4.951s-5.719-5.244-5.719-5.244V242.5l1.937-2.014
				C1043.937,240.486,1039.12,231.416,1049.005,230.903z"/>
			<path style="fill:none;stroke:#000000;stroke-width:2;stroke-miterlimit:10;" d="M1040.345,257.45c0,0-0.821,3.877-6.255,6.198
				c-5.435,2.321-8.09,7.625-8.09,7.625v102.837h27V271.5c0,0-2.125-6.594-7.395-7.962
				C1041.12,262.374,1040.345,257.45,1040.345,257.45z"/>
			<path style="fill:none;stroke:#000000;stroke-width:2;stroke-miterlimit:10;" d="M988,141.111h12v14.061c0,0-3.11-5.444-6-5.444
				s-6,5.444-6,5.444V141.111z"/>
			<path style="fill:none;stroke:#000000;stroke-width:2;stroke-miterlimit:10;" d="M971,141.111h13v14.061
				c0,0-3.855-5.444-6.5-5.444s-6.5,5.444-6.5,5.444V141.111z"/>
			<path style="fill:none;stroke:#000000;stroke-width:2;stroke-miterlimit:10;" d="M977.5,153.675c0,0-2.5,0-4.5,4.444v2.381
				l-2,2.125V190.5c0,0,5-5.15,13-5.15V162.5l-2-1.716V158.5C982,158.5,980.322,153.925,977.5,153.675z"/>
			<path style="fill:none;stroke:#000000;stroke-width:2;stroke-miterlimit:10;" d="M994.5,153.675c0,0,4.5,0.901,4.5,4.444v2.381
				l2,2.125V190.5c0,0-4-5.15-13-5.15V162.5l2-1.716V158.5C990,158.5,991.373,154.065,994.5,153.675z"/>
			<polygon style="fill:none;stroke:#000000;stroke-width:2;stroke-miterlimit:10;" points="983.684,191.111 990.684,191.111 
				987.184,193.927 			"/>
			<path style="fill:none;stroke:#000000;stroke-width:2;stroke-miterlimit:10;" d="M979.595,190.388c0,0-4.633,0.204-7.062,4.576
				c0,0-1.533,1.71,0.467,1.346v32.19c0,0,6-4.117,11,0v-32c0,0,2.326-0.014,1.355-1.714
				C984.383,193.086,982.926,190.659,979.595,190.388z"/>
			<path style="fill:none;stroke:#000000;stroke-width:2;stroke-miterlimit:10;" d="M995.595,190.388c0,0-4.633,0.204-7.062,4.576
				c0,0-1.533,1.71,0.467,1.346v32.19c0,0,6-4.117,11,0v-32c0,0,2.326-0.014,1.355-1.714
				C1000.383,193.086,998.926,190.659,995.595,190.388z"/>
			<path style="fill:none;stroke:#000000;stroke-width:2;stroke-miterlimit:10;" d="M975.335,240.486"/>
			<path style="fill:none;stroke:#000000;stroke-width:2;stroke-miterlimit:10;" d="M979.464,230.903c0,0-9.118,0.454-4.72,9.617
				L973,242.57v21.93c0,0,2.019-4.327,5.281-4.951s5.719-5.244,5.719-5.244V242.5l-0.703-2.014
				C983.297,240.486,989.35,231.416,979.464,230.903z"/>
			<path style="fill:none;stroke:#000000;stroke-width:2;stroke-miterlimit:10;" d="M996.005,230.903c0,0,7.884,0.454,3.485,9.617
				l0.51,2.05v21.93c0,0-2.019-4.327-5.281-4.951S989,254.306,989,254.306V242.5l1.937-2.014
				C990.937,240.486,986.12,231.416,996.005,230.903z"/>
			<path style="fill:none;stroke:#000000;stroke-width:2;stroke-miterlimit:10;" d="M987.345,257.45c0,0-0.821,3.877-6.255,6.198
				c-5.435,2.321-8.09,7.625-8.09,7.625v102.837h27V271.5c0,0-2.125-6.594-7.395-7.962
				C988.12,262.374,987.345,257.45,987.345,257.45z"/>
			<path style="fill:none;stroke:#000000;stroke-width:2;stroke-miterlimit:10;" d="M903.285,585.866c0,0-9.285-0.443-9.285,15.294
				c0,15.737,0,41.95,0,41.95h20V601.5C914,601.5,913.211,585.866,903.285,585.866z"/>
			<path style="fill:none;stroke:#000000;stroke-width:2;stroke-miterlimit:10;" d="M1121.285,584.866c0,0-9.285-0.443-9.285,15.294
				c0,15.737,0,41.95,0,41.95h20V600.5C1132,600.5,1131.211,584.866,1121.285,584.866z"/>
			
				<rect x="925.582" y="58.892" style="fill:none;stroke:#000000;stroke-width:2;stroke-miterlimit:10;" width="23.406" height="45.916"/>
			
				<rect x="968.321" y="40.861" style="fill:none;stroke:#000000;stroke-width:2;stroke-miterlimit:10;" width="33.921" height="63.947"/>
			
				<rect x="1022.965" y="40.861" style="fill:none;stroke:#000000;stroke-width:2;stroke-miterlimit:10;" width="35.108" height="63.947"/>
			
				<rect x="1077.978" y="58.892" style="fill:none;stroke:#000000;stroke-width:2;stroke-miterlimit:10;" width="22.309" height="45.916"/>
			<polygon style="fill:none;stroke:#000000;stroke-width:2;stroke-miterlimit:10;" points="915,50.111 915,112.111 1107,112.111 
				1107,50.111 1075,50.111 1075,30.111 947,30.111 947,50.111 			"/>
			<path style="fill:none;stroke:#000000;stroke-width:2;stroke-miterlimit:10;" d="M1011.884,484.28
				c0,0-76.884,13.622-88.884,98.139v96.691h178v-97.018C1101,582.093,1102.258,506.232,1011.884,484.28z"/>
			<g id="engraving-towel">
				<path style="fill:none;stroke:#000000;stroke-width:2;stroke-miterlimit:10;" d="M997.035,533.525"/>
				<circle style="fill:none;stroke:#000000;stroke-width:2;stroke-miterlimit:10;" cx="1014.3" cy="567.512" r="20.181"/>
				<path style="fill:none;stroke:#000000;stroke-width:2;stroke-miterlimit:10;" d="M1002.372,543.059c0,0,9.494-6.814,23.583,0
					c0,0.077,0.459-14.088-11.791-14.088C1001.913,528.971,1002.372,543.059,1002.372,543.059z"/>
				<path style="fill:none;stroke:#000000;stroke-width:2;stroke-miterlimit:10;" d="M987.777,570.499
					c0,0-3.179-11.246,8.021-22.176c0.072,0.026-13.092-5.224-17.259,6.296C974.372,566.139,987.777,570.499,987.777,570.499z"/>
				<path style="fill:none;stroke:#000000;stroke-width:2;stroke-miterlimit:10;" d="M1033.851,548.943
					c0,0,9.391,6.956,7.212,22.453c-0.073,0.023,13.554-3.871,9.807-15.535S1033.851,548.943,1033.851,548.943z"/>
				<path style="fill:none;stroke:#000000;stroke-width:2;stroke-miterlimit:10;" d="M1009.834,593.346
					c0,0-11.686-0.152-18.978-13.999c0.045-0.062-8.733,11.065,1.126,18.337S1009.834,593.346,1009.834,593.346z"/>
				<path style="fill:none;stroke:#000000;stroke-width:2;stroke-miterlimit:10;" d="M1037.01,580.163
					c0,0-3.191,11.242-18.46,14.676c-0.048-0.06,8.408,11.314,17.997,3.69C1046.137,590.905,1037.01,580.163,1037.01,580.163z"/>
				<path style="fill:none;stroke:#000000;stroke-width:2;stroke-miterlimit:10;" d="M997.922,533.525c0,0-6.402,0.08-11.154,8.024
					c-0.023,0.113,5.735-1.919,9.687,0.903C996.567,542.453,994.986,537.989,997.922,533.525z"/>
				<path style="fill:none;stroke:#000000;stroke-width:2;stroke-miterlimit:10;" d="M1030.767,533.525c0,0,6.402,0.08,11.154,8.024
					c0.023,0.113-5.735-1.919-9.687,0.903C1032.122,542.453,1033.703,537.989,1030.767,533.525z"/>
				<path style="fill:none;stroke:#000000;stroke-width:2;stroke-miterlimit:10;" d="M977.744,572.336c0,0-1.83,6.136,4.339,13.038
					c0.101,0.055-0.125-6.046,3.746-8.978C985.863,576.287,981.131,576.467,977.744,572.336z"/>
				<path style="fill:none;stroke:#000000;stroke-width:2;stroke-miterlimit:10;" d="M1050.576,572.336c0,0,1.83,6.136-4.339,13.038
					c-0.101,0.055,0.125-6.046-3.746-8.978C1042.457,576.287,1047.189,576.467,1050.576,572.336z"/>
				<path style="fill:none;stroke:#000000;stroke-width:2;stroke-miterlimit:10;" d="M1021.1,604.501c0,0-5.317,3.566-13.738-0.28
					c-0.083-0.08,5.812-1.673,7.464-6.239C1014.92,597.918,1016.151,602.49,1021.1,604.501z"/>
				<path style="fill:none;stroke:#000000;stroke-width:2;stroke-miterlimit:10;" d="M970.782,563.483c0,0-7.32,12.904-6.791,21.89
					c0.17,0.012,1.698,0.552,1.698,2.319s-1.698,2.02-1.698,2.02s-1.188,8.531,0,12.281c0,0.833,1.528-4.383,3.565-4.723
					c0.34,0.17-0.255-2.801,0.17-3.226c0.424-0.424,0.509-0.849,2.547-0.34c-0.17,0,5.773-3.992,5.773-3.992l-3.565-6.878
					l-2.726-2.671l1.368-2.927C971.121,577.236,969.763,572.142,970.782,563.483z"/>
				<path style="fill:none;stroke:#000000;stroke-width:2;stroke-miterlimit:10;" d="M1057.726,563.483c0,0,7.32,12.904,6.791,21.89
					c-0.17,0.012-1.698,0.552-1.698,2.319s1.698,2.02,1.698,2.02s1.188,8.531,0,12.281c0,0.833-1.528-4.383-3.565-4.723
					c-0.34,0.17,0.255-2.801-0.17-3.226s-0.509-0.849-2.547-0.34c0.17,0-5.773-3.992-5.773-3.992l3.565-6.878l2.726-2.671
					l-1.368-2.927C1057.386,577.236,1058.744,572.142,1057.726,563.483z"/>
				<path style="fill:none;stroke:#000000;stroke-width:2;stroke-miterlimit:10;" d="M978.469,594.977c0,0-6.135,3.677-10.21,11.241
					c0.17,0.093-0.507,2.704-0.507,2.704S963,611.023,963,616.796c0,5.773,0,37.704,0,37.704s15.324-10.005,30.528,0
					c0.262,0.157-0.259-37.504-0.259-37.504S993,610.412,988,609.223v-2.35C988,606.874,985.619,598.73,978.469,594.977z"/>
				<path style="fill:none;stroke:#000000;stroke-width:2;stroke-miterlimit:10;" d="M1050.469,594.977
					c0,0-6.135,3.677-10.21,11.241c0.17,0.093-0.507,2.704-0.507,2.704s-4.751,2.101-4.751,7.874c0,5.773,0,37.704,0,37.704
					s15.324-10.005,30.528,0c0.262,0.157-0.259-37.504-0.259-37.504s-0.268-6.584-5.268-7.773v-2.35
					C1060,606.874,1057.619,598.73,1050.469,594.977z"/>
				<path style="fill:none;stroke:#000000;stroke-width:2;stroke-miterlimit:10;" d="M997.035,607.591c0,0,2.463,5.48,2.895,12.532
					c0.144,0.144,3.598-6.189,8.347-8.635C1008.565,611.631,1001.048,610.602,997.035,607.591z"/>
				<path style="fill:none;stroke:#000000;stroke-width:2;stroke-miterlimit:10;" d="M1033.285,607.591c0,0-2.463,5.48-2.895,12.532
					c-0.144,0.144-3.598-6.189-8.347-8.635C1021.755,611.631,1029.272,610.602,1033.285,607.591z"/>
				<path style="fill:none;stroke:#000000;stroke-width:2;stroke-miterlimit:10;" d="M1013.117,613.901
					c0,0-7.117,4.351-9.117,10.107v3.492c0,0-5,0.106-5,12.771c0,12.665,0,14.229,0,14.229s12.756-10.237,30.15,0
					c0.267,0.307-0.136-2.35-0.136-14.312c0-11.962-5.013-13.036-5.013-13.036V624.5C1024,624.5,1023.681,619.024,1013.117,613.901z
					"/>
				<path style="fill:none;stroke:#000000;stroke-width:2;stroke-miterlimit:10;" d="M963,662.5v17.611h30V662.5
					C993,662.5,979,650.06,963,662.5z"/>
				<path style="fill:none;stroke:#000000;stroke-width:2;stroke-miterlimit:10;" d="M999,662.5v17.611h30V662.5
					C1029,662.5,1015,650.06,999,662.5z"/>
				<path style="fill:none;stroke:#000000;stroke-width:2;stroke-miterlimit:10;" d="M1035,662.5v17.611h30V662.5
					C1065,662.5,1051,650.06,1035,662.5z"/>
			</g>
		</g>
	</g>
	<g id="pillar">
		<g id="side-pillar">
			<g id="Layer_40">
				<polygon style="fill:none;stroke:#000000;stroke-width:2;stroke-miterlimit:10;" points="90.906,1205.661 79.292,1229.111 
					82,1229.111 82,1327.5 79.292,1337.111 106.739,1337.111 102.184,1329.746 100.261,1229.111 103.929,1229.111 				"/>
				<polygon style="fill:none;stroke:#000000;stroke-width:2;stroke-miterlimit:10;" points="192.906,1205.661 181.292,1229.111 
					184,1229.111 184,1327.5 181.292,1337.111 208.739,1337.111 204.184,1329.746 202.261,1229.111 205.929,1229.111 				"/>
				
					<rect x="80.292" y="1090.5" style="fill:none;stroke:#000000;stroke-width:2;stroke-miterlimit:10;" width="20.194" height="129.5"/>
				
					<rect x="183.279" y="1090.5" style="fill:none;stroke:#000000;stroke-width:2;stroke-miterlimit:10;" width="20.194" height="129.5"/>
				
					<rect x="1829.489" y="1090.853" style="fill:none;stroke:#000000;stroke-width:2;stroke-miterlimit:10;" width="20.194" height="129.5"/>
				
					<rect x="1932.476" y="1090.853" style="fill:none;stroke:#000000;stroke-width:2;stroke-miterlimit:10;" width="20.194" height="129.5"/>
			</g>
			<g id="Layer_41">
				<polygon style="fill:none;stroke:#000000;stroke-width:2;stroke-miterlimit:10;" points="1942.125,1205.661 1953.739,1229.111 
					1949,1229.111 1949,1327.5 1953.739,1337.111 1926.292,1337.111 1930.847,1329.746 1932.769,1229.111 1929.102,1229.111 				"/>
				<polygon style="fill:none;stroke:#000000;stroke-width:2;stroke-miterlimit:10;" points="1840.125,1205.661 1851.739,1229.111 
					1847,1229.111 1847,1327.5 1851.739,1337.111 1824.292,1337.111 1828.847,1329.746 1830.769,1229.111 1827.102,1229.111 				"/>
			</g>
		</g>
		<g id="main-pillar">
			<polyline style="fill:none;stroke:#000000;stroke-width:2;stroke-miterlimit:10;" points="361.789,1205.629 348.894,1230.111 
				352,1230.111 352,1331.111 370,1331.111 370,1230.111 374.684,1230.111 361.789,1205.629 			"/>
			<polyline style="fill:none;stroke:#000000;stroke-width:2;stroke-miterlimit:10;" points="470.789,1205.629 457.894,1230.111 
				461,1230.111 461,1331.111 479,1331.111 479,1230.111 483.684,1230.111 470.789,1205.629 			"/>
			<polyline style="fill:none;stroke:#000000;stroke-width:2;stroke-miterlimit:10;" points="579.789,1205.629 566.894,1230.111 
				570,1230.111 570,1331.111 588,1331.111 588,1230.111 592.684,1230.111 579.789,1205.629 			"/>
			<polygon style="fill:none;stroke:#000000;stroke-width:2;stroke-miterlimit:10;" points="352.172,965.788 360.794,950.932 
				368.24,965.642 366,967.717 366,993.849 368,996.489 368,1221.111 351,1221.111 351,997.103 354,994.095 354,967.818 			"/>
			<polygon style="fill:none;stroke:#000000;stroke-width:2;stroke-miterlimit:10;" points="461.172,965.788 469.794,950.932 
				477.24,965.642 475,967.717 475,993.849 477,996.489 477,1221.111 460,1221.111 460,997.103 463,994.095 463,967.818 			"/>
			<polygon style="fill:none;stroke:#000000;stroke-width:2;stroke-miterlimit:10;" points="571.172,965.788 579.794,950.932 
				587.24,965.642 585,967.717 585,993.849 587,996.489 587,1221.111 570,1221.111 570,997.103 573,994.095 573,967.818 			"/>
			<polygon style="fill:none;stroke:#000000;stroke-width:2;stroke-miterlimit:10;" points="680.172,965.788 688.794,950.932 
				696.24,965.642 694,967.717 694,993.849 696,996.489 696,1221.111 679,1221.111 679,997.103 682,994.095 682,967.818 			"/>
			<polygon style="fill:none;stroke:#000000;stroke-width:2;stroke-miterlimit:10;" points="1334.172,965.788 1342.794,950.932 
				1350.24,965.642 1348,967.717 1348,993.849 1350,996.489 1350,1221.111 1333,1221.111 1333,997.103 1336,994.095 1336,967.818 
							"/>
			<polygon style="fill:none;stroke:#000000;stroke-width:2;stroke-miterlimit:10;" points="1443.172,965.788 1451.794,950.932 
				1459.24,965.642 1457,967.717 1457,993.849 1459,996.489 1459,1221.111 1442,1221.111 1442,997.103 1445,994.095 1445,967.818 
							"/>
			<polygon style="fill:none;stroke:#000000;stroke-width:2;stroke-miterlimit:10;" points="1553.172,965.788 1561.794,950.932 
				1569.24,965.642 1567,967.717 1567,993.849 1569,996.489 1569,1221.111 1552,1221.111 1552,997.103 1555,994.095 1555,967.818 
							"/>
			<polygon style="fill:none;stroke:#000000;stroke-width:2;stroke-miterlimit:10;" points="1662.172,965.788 1670.794,950.932 
				1678.24,965.642 1676,967.717 1676,993.849 1678,996.489 1678,1221.111 1661,1221.111 1661,997.103 1664,994.095 1664,967.818 
							"/>
			<polyline style="fill:none;stroke:#000000;stroke-width:2;stroke-miterlimit:10;" points="1452.789,1205.629 1439.894,1230.111 
				1443,1230.111 1443,1331.111 1461,1331.111 1461,1230.111 1465.684,1230.111 1452.789,1205.629 			"/>
			<polyline style="fill:none;stroke:#000000;stroke-width:2;stroke-miterlimit:10;" points="1561.789,1205.629 1548.894,1230.111 
				1552,1230.111 1552,1331.111 1570,1331.111 1570,1230.111 1574.684,1230.111 1561.789,1205.629 			"/>
			<polyline style="fill:none;stroke:#000000;stroke-width:2;stroke-miterlimit:10;" points="1670.789,1205.629 1657.894,1230.111 
				1661,1230.111 1661,1331.111 1679,1331.111 1679,1230.111 1683.684,1230.111 1670.789,1205.629 			"/>
		</g>
		<g id="center-pillar">
			<polygon style="fill:none;stroke:#000000;stroke-width:2;stroke-miterlimit:10;" points="800.851,1007.02 793,1026.018 
				793,1220.111 810,1220.111 810,1025.833 			"/>
			<polygon style="fill:none;stroke:#000000;stroke-width:2;stroke-miterlimit:10;" points="802.684,1206.769 791.071,1229.111 
				792,1229.111 792,1329.833 790.479,1334.833 815.261,1334.72 812,1329.783 812,1229.111 815.684,1229.111 			"/>
			<polygon style="fill:none;stroke:#000000;stroke-width:2;stroke-miterlimit:10;" points="1228.851,1007.02 1221,1026.018 
				1221,1220.111 1238,1220.111 1238,1025.833 			"/>
			<polygon style="fill:none;stroke:#000000;stroke-width:2;stroke-miterlimit:10;" points="1230.684,1206.769 1219.071,1229.111 
				1220,1229.111 1220,1329.833 1218.479,1334.833 1243.261,1334.72 1240,1329.783 1240,1229.111 1243.684,1229.111 			"/>
			<polygon style="fill:none;stroke:#000000;stroke-width:2;stroke-miterlimit:10;" points="908.034,1006.687 898.517,1025.737 
				900.184,1029.241 900.176,1220.111 914,1220.111 914,1028.152 916.727,1025.682 			"/>
			<polygon style="fill:none;stroke:#000000;stroke-width:2;stroke-miterlimit:10;" points="907.684,1206.769 896.071,1229.111 
				897,1229.111 897,1329.5 895.479,1334.5 920.261,1334.387 917,1329.45 917,1229.111 920.684,1229.111 			"/>
			<polygon style="fill:none;stroke:#000000;stroke-width:2;stroke-miterlimit:10;" points="961.684,1206.769 950.071,1229.111 
				951,1229.111 951,1329.5 949.479,1334.5 974.261,1334.387 971,1329.45 971,1229.111 974.684,1229.111 			"/>
			<polygon style="fill:none;stroke:#000000;stroke-width:2;stroke-miterlimit:10;" points="1071.684,1206.769 1060.071,1229.111 
				1061,1229.111 1061,1329.5 1059.479,1334.5 1084.261,1334.387 1081,1329.45 1081,1229.111 1084.684,1229.111 			"/>
			<polygon style="fill:none;stroke:#000000;stroke-width:2;stroke-miterlimit:10;" points="962.034,1006.687 952.517,1025.737 
				954.184,1029.241 954.176,1220.111 968,1220.111 968,1028.152 970.727,1025.682 			"/>
			<polygon style="fill:none;stroke:#000000;stroke-width:2;stroke-miterlimit:10;" points="1071.034,1006.687 1061.517,1025.737 
				1063.184,1029.241 1063.176,1220.111 1077,1220.111 1077,1028.152 1079.727,1025.682 			"/>
			<polygon style="fill:none;stroke:#000000;stroke-width:2;stroke-miterlimit:10;" points="1126.034,1006.687 1116.517,1025.737 
				1118.184,1029.241 1118.176,1220.111 1132,1220.111 1132,1028.152 1134.727,1025.682 			"/>
			<polygon style="fill:none;stroke:#000000;stroke-width:2;stroke-miterlimit:10;" points="1125.684,1206.769 1114.071,1229.111 
				1115,1229.111 1115,1329.5 1113.479,1334.5 1138.261,1334.387 1135,1329.45 1135,1229.111 1138.684,1229.111 			"/>
			
				<rect x="901.684" y="815.165" style="fill:none;stroke:#000000;stroke-width:2;stroke-miterlimit:10;" width="11.362" height="202.133"/>
			
				<rect x="956.365" y="815.165" style="fill:none;stroke:#000000;stroke-width:2;stroke-miterlimit:10;" width="11.362" height="202.133"/>
			
				<rect x="1064.957" y="815.165" style="fill:none;stroke:#000000;stroke-width:2;stroke-miterlimit:10;" width="11.362" height="202.133"/>
			
				<rect x="1119.276" y="815.165" style="fill:none;stroke:#000000;stroke-width:2;stroke-miterlimit:10;" width="11.362" height="202.133"/>
		</g>
		<g id="tower-pillar">
			<polygon style="fill:none;stroke:#000000;stroke-width:2;stroke-miterlimit:10;" points="903.509,90.415 884.266,126.904 
				887,129.643 887,680.111 918,680.111 918,129.5 921.568,126.601 			"/>
			<polygon style="fill:none;stroke:#000000;stroke-width:2;stroke-miterlimit:10;" points="1122.358,90.415 1103.344,126.904 
				1106,129.643 1106,680.111 1138,680.111 1138,129.5 1141.599,126.601 			"/>
			<polyline style="fill:none;stroke:#000000;stroke-width:2;stroke-miterlimit:10;" points="904.684,565.281 892.822,585.332 
				894.542,586.588 884.179,601.305 887,602.878 887,666.111 881,666.111 881,680.111 926,680.111 926,666.111 918.684,666.111 
				919.184,605.064 922.592,602.068 913.148,586.601 914.903,585.401 904.684,565.281 			"/>
			<polyline style="fill:none;stroke:#000000;stroke-width:2;stroke-miterlimit:10;" points="1123.684,565.281 1111.822,585.332 
				1113.542,586.588 1103.179,601.305 1106,602.878 1106,666.111 1100,666.111 1100,680.111 1145,680.111 1145,666.111 
				1137.684,666.111 1138.184,605.064 1141.593,602.068 1132.148,586.601 1133.902,585.401 1123.684,565.281 			"/>
			<path style="fill:none;stroke:#000000;stroke-width:2;stroke-miterlimit:10;" d="M953,129.111V148.5c0,0-4,4.454,0,9.189V516.5
				l3.187,1.598l7.813-7.775V157.5c0,0,4-4.522,0-8.885v-19.504H953z"/>
			<path style="fill:none;stroke:#000000;stroke-width:2;stroke-miterlimit:10;" d="M1073,129.111V148.5c0,0,5,4.454,0,9.189V516.5
				l-3.187,1.598l-7.813-7.775V157.5c0,0-3-4.522,0-8.885v-19.504H1073z"/>
			<polygon style="fill:none;stroke:#000000;stroke-width:2;stroke-miterlimit:10;" points="995.662,374.087 989.548,380.404 
				991,383.367 991,401.5 989,403.273 989,410.5 990,411.445 990,474.111 999,474.111 999,411.5 1000,410.499 1000,403.5 
				998,401.359 998,383.537 1000.592,380.456 			"/>
			<polygon style="fill:none;stroke:#000000;stroke-width:2;stroke-miterlimit:10;" points="1031.662,374.087 1025.548,380.404 
				1027,383.367 1027,401.5 1025,403.273 1025,410.5 1026,411.445 1026,474.111 1035,474.111 1035,411.5 1036,410.499 1036,403.5 
				1034,401.359 1034,383.537 1036.592,380.456 			"/>
			<polyline style="fill:none;stroke:#000000;stroke-width:2;stroke-miterlimit:10;" points="930.783,512.512 927.09,519.111 
				927,519.111 927,522.111 926.522,522.111 927,521.726 927,537.5 928.288,539.096 926,541.815 926,681.111 935,681.111 935,541.5 
				932.753,539.138 934,537.362 934,521.726 936.282,522.111 933,522.111 933,519.111 935.3,519.111 930.783,512.512 			"/>
			<polyline style="fill:none;stroke:#000000;stroke-width:2;stroke-miterlimit:10;" points="1094.783,512.512 1091.09,519.111 
				1091,519.111 1091,522.111 1090.522,522.111 1091,521.726 1091,537.5 1092.288,539.096 1090,541.815 1090,681.111 1099,681.111 
				1099,541.5 1096.753,539.138 1098,537.362 1098,521.726 1100.282,522.111 1097,522.111 1097,519.111 1099.3,519.111 
				1094.783,512.512 			"/>
			<path style="fill:none;stroke:#000000;stroke-width:2;stroke-miterlimit:10;" d="M1141.869,290.509l-1.13,1.802l1.01,1.2
				c0,0-3.545,1.171-3.545,2.839c0,1.668,0.796,2.859,0.796,2.859v17.29c0,0-1.537,0.149-1.537,0.986s1.537,1.256,1.537,1.256v1.759
				c0,0-1.585,0.474-1.585,1.171c0,0.698,1.585,0.878,1.585,0.878v0.951l-4.094,3.473l3.574,4.822l-1.105,334.316h4.309h4.5
				l-1.449-334.316l2.639-4.294l-5.373-4v-0.951c0,0,1.585-0.18,1.585-0.878c0-0.698-1.585-1.171-1.585-1.171v-1.759
				c0,0,1.537-0.419,1.537-1.256S1142,316.5,1142,316.5v-17.29c0,0,2.063-1.191,2.063-2.859c0-1.668-2.574-2.839-2.574-2.839
				l1.134-1.2l-1.104-1.802"/>
			<path style="fill:none;stroke:#000000;stroke-width:2;stroke-miterlimit:10;" d="M1102.869,290.509l-1.13,1.802l1.01,1.2
				c0,0-3.545,1.171-3.545,2.839c0,1.668,0.796,2.859,0.796,2.859v17.29c0,0-1.537,0.149-1.537,0.986s1.537,1.256,1.537,1.256v1.759
				c0,0-1.585,0.474-1.585,1.171c0,0.698,1.585,0.878,1.585,0.878v0.951l-4.094,3.473l3.574,4.822l-1.105,334.316h4.309h4.5
				l-1.449-334.316l2.639-4.294l-5.373-4v-0.951c0,0,1.585-0.18,1.585-0.878c0-0.698-1.585-1.171-1.585-1.171v-1.759
				c0,0,1.537-0.419,1.537-1.256S1103,316.5,1103,316.5v-17.29c0,0,2.063-1.191,2.063-2.859c0-1.668-2.574-2.839-2.574-2.839
				l1.134-1.2l-1.104-1.802"/>
			<path style="fill:none;stroke:#000000;stroke-width:2;stroke-miterlimit:10;" d="M884.869,290.509l-1.13,1.802l1.01,1.2
				c0,0-3.545,1.171-3.545,2.839c0,1.668,0.796,2.859,0.796,2.859v17.29c0,0-1.537,0.149-1.537,0.986s1.537,1.256,1.537,1.256v1.759
				c0,0-1.585,0.474-1.585,1.171c0,0.698,1.585,0.878,1.585,0.878v0.951l-4.094,3.473l3.574,4.822l-1.105,334.316h4.309h4.5
				l-1.449-334.316l2.639-4.294l-5.373-4v-0.951c0,0,1.585-0.18,1.585-0.878c0-0.698-1.585-1.171-1.585-1.171v-1.759
				c0,0,1.537-0.419,1.537-1.256S885,316.5,885,316.5v-17.29c0,0,2.063-1.191,2.063-2.859c0-1.668-2.574-2.839-2.574-2.839
				l1.134-1.2l-1.104-1.802"/>
			<path style="fill:none;stroke:#000000;stroke-width:2;stroke-miterlimit:10;" d="M922.869,290.509l-1.13,1.802l1.01,1.2
				c0,0-3.545,1.171-3.545,2.839c0,1.668,0.796,2.859,0.796,2.859v17.29c0,0-1.537,0.149-1.537,0.986s1.537,1.256,1.537,1.256v1.759
				c0,0-1.585,0.474-1.585,1.171c0,0.698,1.585,0.878,1.585,0.878v0.951l-4.094,3.473l3.574,4.822l-1.105,334.316h4.309h4.5
				l-1.449-334.316l2.639-4.294l-5.373-4v-0.951c0,0,1.585-0.18,1.585-0.878c0-0.698-1.585-1.171-1.585-1.171v-1.759
				c0,0,1.537-0.419,1.537-1.256S923,316.5,923,316.5v-17.29c0,0,2.063-1.191,2.063-2.859c0-1.668-2.574-2.839-2.574-2.839
				l1.134-1.2l-1.104-1.802"/>
			<path style="fill:none;stroke:#000000;stroke-width:2;stroke-miterlimit:10;" d="M1007,129.111V148.5c0,0-4,4.454,0,9.189V516.5
				l3.187,1.598l7.813-7.775V157.5c0,0,4-4.522,0-8.885v-19.504H1007z"/>
			<polygon style="fill:none;stroke:#000000;stroke-width:2;stroke-miterlimit:10;" points="957.119,30.089 954,34.238 954,100.5 
				951,104.808 951,109.5 957.409,119.503 963,109.5 963,104.808 960,100.5 960,34.5 			"/>
			<polygon style="fill:none;stroke:#000000;stroke-width:2;stroke-miterlimit:10;" points="1011.119,30.089 1008,34.238 
				1008,100.5 1005,104.808 1005,109.5 1011.409,119.503 1017,109.5 1017,104.808 1014,100.5 1014,34.5 			"/>
			<polygon style="fill:none;stroke:#000000;stroke-width:2;stroke-miterlimit:10;" points="1066.12,30.089 1063,34.238 1063,100.5 
				1060,104.808 1060,109.5 1066.409,119.503 1072,109.5 1072,104.808 1069,100.5 1069,34.5 			"/>
			<path style="fill:none;stroke:#000000;stroke-width:2;stroke-miterlimit:10;" d="M903.954,99.819l13.935,28.211L916,128.967
				v8.533l-1,1.5v8.5c0,0,2.057,0.944,2.057,4.954s-0.434,4.01-0.434,4.01s0.929,1.146,0.929,2.482s-1.445,1.719-3.355,1.719
				c-1.91,0-4.351,0-4.351-1.146s-0.584-3.246,0.725-3.246c0,0-4.571-1.76-0.571-9.187V141.5l-3.063-4.131l3.003-2.573
				c0,0-2.197-5.685-6.003-5.685h-0.389c-3.805,0-6.315,5.685-6.315,5.685l2.081,3.1L895,141.5v5.586
				c4,7.426,0.659,9.187,0.659,9.187c1.31,0,1.66,2.1,1.66,3.246s-2.334,1.146-4.244,1.146c-1.91,0-3.363-0.382-3.363-1.719
				s0.801-2.482,0.801-2.482s-1.337,0-1.337-4.01S890,147.5,890,147.5V139l-1-1.5v-8.533l-0.638-0.936l14.89-28.211"/>
			<path style="fill:none;stroke:#000000;stroke-width:2;stroke-miterlimit:10;" d="M1122.954,99.819l13.935,28.211l-1.889,0.936
				v8.533l-1,1.5v8.5c0,0,2.057,0.944,2.057,4.954s-0.434,4.01-0.434,4.01s0.929,1.146,0.929,2.482s-1.445,1.719-3.355,1.719
				s-4.351,0-4.351-1.146s-0.584-3.246,0.725-3.246c0,0-4.571-1.76-0.571-9.187V141.5l-3.063-4.131l3.003-2.573
				c0,0-2.197-5.685-6.003-5.685h-0.389c-3.805,0-6.315,5.685-6.315,5.685l2.082,3.1L1114,141.5v5.586
				c4,7.426,0.659,9.187,0.659,9.187c1.31,0,1.66,2.1,1.66,3.246s-2.334,1.146-4.244,1.146c-1.91,0-3.363-0.382-3.363-1.719
				s0.801-2.482,0.801-2.482s-1.337,0-1.337-4.01S1109,147.5,1109,147.5V139l-1-1.5v-8.533l-0.638-0.936l14.89-28.211"/>
			<polygon style="fill:none;stroke:#000000;stroke-width:2;stroke-miterlimit:10;" points="991,475.111 991,476.5 988,479.69 
				988,491.5 996.895,497.508 1001,490.314 1001,478.5 998,476.29 998,475.111 			"/>
			<polygon style="fill:none;stroke:#000000;stroke-width:2;stroke-miterlimit:10;" points="1033,475.111 1033,476.5 1036,479.69 
				1036,491.5 1027.105,497.508 1023,490.314 1023,478.5 1026,476.29 1026,475.111 			"/>
		</g>
	</g>
	<g id="edge">
		<g id="outside">
			<g id="side-outline">
				<g id="left">
					<polygon style="fill:none;stroke:#000000;stroke-width:2;stroke-miterlimit:10;" points="28.102,1008.18 25.603,1010.486 
						29,1010.253 29,1045.004 24.278,1049.568 31,1061.151 31,1088.527 27.782,1097.111 29.388,1097.111 24.099,1104.111 
						26.272,1104.111 21.056,1113.111 23.156,1113.111 18.974,1121.666 16.165,1122.306 18,1125.286 18,1197.111 16.924,1197.111 
						16,1197.111 16,1201.111 14.846,1201.111 15,1201.111 15,1205.111 12.769,1205.111 7.694,1227.241 11,1229.069 11,1329.421 
						6.017,1338.111 278.684,1338.111 272,1329.507 272,1229.217 274.878,1228.003 268.816,1203.111 261,1203.111 261,1145.208 
						259,1141.135 259,1125.977 262.869,1122.434 249.586,1088.021 255,1081.424 255,1057.15 259.155,1049.558 255,1045.896 
						255,1013.111 259.986,1013.111 254.273,1004.091 247.175,1011.262 252.369,1012.512 252.542,1015.111 188,1015.111 
						188,1011.111 192.888,1011.111 185.811,1005.123 179.423,1011.111 182,1011.111 182,1015.111 94,1015.111 94,1011.111 
						99.216,1011.111 92.911,1005.979 87.482,1011.111 89,1011.111 89,1015.111 33,1015.111 33,1012.111 37.698,1012.111 
						31.77,1005.321 					"/>
				</g>
				<g id="right">
					<polygon style="fill:none;stroke:#000000;stroke-width:2;stroke-miterlimit:10;" points="2004.598,1008.18 2005.748,1010.486 
						2001,1010.253 2001,1045.004 2005.722,1049.568 1999,1061.151 1999,1088.527 2004.919,1097.111 2003.312,1097.111 
						2008.602,1104.111 2006.428,1104.111 2011.645,1113.111 2009.545,1113.111 2013.727,1121.666 2015.185,1122.306 2012,1125.286 
						2012,1197.111 2015.777,1197.111 2014,1197.111 2014,1201.111 2017.854,1201.111 2015,1201.111 2015,1205.111 
						2019.932,1205.111 2023.657,1227.241 2019,1229.069 2019,1329.421 2026.684,1338.111 1754.017,1338.111 1758,1329.507 
						1758,1229.217 1756.473,1228.003 1763.885,1203.111 1769,1203.111 1769,1145.208 1771,1141.135 1771,1125.977 
						1768.481,1122.434 1781.089,1088.021 1775,1081.424 1775,1057.15 1770.845,1049.558 1775,1045.896 1775,1013.111 
						1772.714,1013.111 1778.427,1004.091 1785.525,1011.262 1780.331,1012.512 1780.158,1015.111 1842,1015.111 1842,1011.111 
						1839.812,1011.111 1846.889,1005.123 1853.277,1011.111 1848,1011.111 1848,1015.111 1936,1015.111 1936,1011.111 
						1933.485,1011.111 1939.79,1005.979 1945.218,1011.111 1941,1011.111 1941,1015.111 1997,1015.111 1997,1012.111 
						1995.002,1012.111 2000.93,1005.321 					"/>
				</g>
			</g>
			<g id="centerSide-outline">
				<polygon style="fill:none;stroke:#000000;stroke-width:2;stroke-miterlimit:10;" points="685.684,1200.111 700,1200.111 
					700,1211.111 706,1211.111 706,1206.111 772,1206.111 772,1231.111 776,1231.111 776,1329.5 774.867,1338.111 669.684,1338.111 
					674,1329.757 674,1281.5 679,1264.909 679,1239.5 676.284,1236.758 685.55,1229.217 				"/>
				<polygon style="fill:none;stroke:#000000;stroke-width:2;stroke-miterlimit:10;" points="1259,1206.111 1326,1206.111 
					1326,1212.111 1333,1212.111 1333,1201.111 1346.684,1201.111 1349.866,1203.912 1347,1204.548 1347,1227.5 1356.99,1237.337 
					1354,1240.48 1354,1262.5 1357.832,1264.856 1355.459,1267.687 1360,1283.727 1360,1328.5 1366.857,1338.111 1262.684,1338.111 
					1257,1328.704 1257,1232.111 1259,1232.111 1259,1206.111 				"/>
			</g>
			<g id="main-outline">
				<polygon style="fill:none;stroke:#000000;stroke-width:2;stroke-miterlimit:10;" points="259.685,1010.587 261.58,1010.624 
					257.277,1005.574 253.433,1010.438 255.273,1010.511 255.233,1015.283 244.344,1016.289 244.684,973.111 242.684,973.111 
					251.846,966.416 261.693,973.111 258,973.111 258,981.111 351,981.111 351,955.5 351,955.555 352,950.351 352,937.5 352,937.5 
					360.19,925.181 366,933.431 366,940.111 462,940.111 462,936.5 462,936.555 470.085,925.167 477.565,937.111 474,937.111 
					474,941.111 570,941.111 570,934.5 577.312,922.834 583,935.065 583,942.111 680,942.111 680,935.5 686.764,922.834 
					693,935.929 693,942.111 779,942.111 779,1009.111 776,1009.111 776,1031.111 779,1031.111 779,1203.111 770,1203.111 
					770,1207.111 705,1207.111 705,1211.111 699,1211.111 699,1201.111 683,1201.111 683,1227.5 675.283,1236.525 679,1239.393 
					679,1265.5 672,1283.839 672,1329.5 669.666,1338.111 279.067,1338.111 274.509,1329.174 274.174,1228.909 276.291,1227.738 
					273.172,1202.663 267.393,1202.508 266.543,1147.404 264,1144.33 264,1127.267 267.204,1123.789 254.649,1091.141 
					260.94,1081.766 261.381,1058.152 264.697,1051.625 260.146,1048.733 				"/>
				<path style="fill:none;stroke:#000000;stroke-width:2;stroke-miterlimit:10;" d="M1253,938.111h83.684l6.224-11.03l6.539,11.03
					h95.238l6.518-11.03l6.538,11.03h95.944l7.037-11.03l6.947,11.03h95.016l5.85-12.335L1675,935.5v17.611h2V966.5l-2,2.395v12.216
					h95V971.5c0,0,3.43-7.804,7.958-7.804s8.042,8.05,8.042,8.05v46.365h-6v-4h2.684l-3.594-4.911l-4.002,4.911H1775v33.389
					l-4.159,6.361l6.67,12.249H1773v2h3v25.389l-4.831,9.193l1.285,1.44l-3.917,9.119l0.969,0.96l-4.901,9.119l2.395,3.648v11.521
					l-1,3.358v54.253h3.684H1765v7h-6.316l1.107,1.229l-5.329,23.641c0,0,1.538,1.83,3.538,2.185c0,0.355,0,97.334,0,97.334
					l-3.695,10.611h-387.622l-7.684-8.596V1283.5l-5-18.151V1240.5l2.952-3.629l-9.952-9.85V1204.5l3.402-0.605l-2.156-2.785H1332
					v11h-5v-6h-67v-3h-7V938.111z"/>
			</g>
			<g id="center-outline">
				<polygon style="fill:none;stroke:#000000;stroke-width:2;stroke-miterlimit:10;" points="899,790.111 913,790.111 913,800.111 
					917,800.111 917,794.111 947,794.111 947,800.111 951,800.111 951,790.111 967,790.111 967,800.111 972,800.111 972,794.111 
					1056,794.111 1056,800.111 1061,800.111 1061,790.111 1076,790.111 1076,800.111 1081,800.111 1081,794.111 1111,794.111 
					1111,800.111 1116,800.111 1116,790.111 1128,790.111 1128,790.496 1128,816.5 1137.965,825.031 1135,828.528 1135,1242.5 
					1140.943,1251.331 1139,1254.487 1139,1328.5 1145.016,1338.111 891.684,1338.111 894,1328.791 894,1253.5 891.995,1249.785 
					895,1244.303 895,828.5 889.558,824.623 899,815.165 				"/>
				<polygon style="fill:none;stroke:#000000;stroke-width:2;stroke-miterlimit:10;" points="808,903.111 894,903.111 894,1328.5 
					891.684,1338.111 779,1338.111 779,1031.111 776,1031.111 776,1009.111 785,1009.111 785,939.5 782.547,935.1 793,925.019 
					793,900.111 804,900.111 804,909.111 808,909.111 				"/>
				<polygon style="fill:none;stroke:#000000;stroke-width:2;stroke-miterlimit:10;" points="1221,903.111 1135,903.111 
					1135,1328.5 1139.684,1338.111 1250,1338.111 1250,1031.111 1253,1031.111 1253,1009.111 1244,1009.111 1244,939.5 
					1246.453,935.1 1236,925.019 1236,900.111 1225,900.111 1225,909.111 1221,909.111 				"/>
			</g>
			<g id="tower-outline">
				<path style="fill:none;stroke:#000000;stroke-width:2;stroke-miterlimit:10;" d="M850.055,677.215L1175,677.5v-14.389
					c0,0,3.867,0,5.43,0c1.563,0-0.097-4.205-0.097-4.205L1175,652.5v-85.389h-9.772L1158,557.5V382.743l2.971-3.187L1160,378.5
					v-1.777l2.959-1.948l2.715,1.594l2.481-3.187l-9.165-11.155l0.857-2.833L1150,347.5v-84.1l5.2-3.01l-8.2-13.89v-19.389h-1
					v-71.722l3-0.889v-3.184l-4-1.816v-19.046l5-2.954V93.111h-8v-67h-20.999L1108,27.5v3.338l-2.316,7.273H1087v-17h-21V10.907
					l2.827-2.851l-3.5-5.702l-5.237,5.499L1061,10.5v9.611h-49v-9.203l2.742-3.055l-3.382-5.499l-5.237,5.499L1007,10.5v9.611h-49
					v-9.203l2.554-2.647l-3.365-5.906l-5.033,5.702L953,10.5v9.611h-20v19h-20V28.421l-9.316-2.311H877v66h-7V126.5l4,3.661V147.5
					l-3,3.365v3.635l2,2.225v5.385h1V245.5c0,0-6.493,11.694-6.493,13.098c0,1.405-0.623,1.204,0.581,2.007
					c1.204,0.803,3.911,3.041,3.911,3.041V346.5l-6.866,13.158l2.317,1.473l-8.018,14.628l1.621,3.351H862v0.389l3,3.018V557.5
					l-1.743,9.611H848V652.5l-2.045,6.584l4.808,4.275l-0.249,14.352"/>
			</g>
		</g>
		<g id="inside">
			<g id="main-outline2">
				<polygon style="fill:none;stroke:#000000;stroke-width:2;stroke-miterlimit:10;" points="258.685,1010.587 260.58,1010.624 
					256.277,1005.574 252.433,1010.438 254.273,1010.511 254.233,1015.283 243.344,1016.289 243.684,973.111 241.684,973.111 
					250.846,966.416 260.693,973.111 257,973.111 257,981.111 351.684,981.111 778,978.931 778,1009.111 775,1009.111 775,1031.111 
					778,1031.111 778,1203.111 769,1203.111 769,1207.111 704,1207.111 704,1211.111 698,1211.111 698,1201.111 682,1201.111 
					682,1227.5 674.283,1236.525 678,1239.393 678,1265.5 671,1283.839 671,1329.5 668.666,1338.111 278.067,1338.111 
					273.509,1329.174 273.174,1228.909 275.291,1227.738 272.172,1202.663 266.393,1202.508 265.543,1147.404 263,1144.33 
					263,1127.267 266.204,1123.789 253.649,1091.141 259.94,1081.766 260.381,1058.152 263.697,1051.625 259.146,1048.733 				"/>
				<polygon style="fill:none;stroke:#000000;stroke-width:2;stroke-miterlimit:10;" points="1775.682,1010.587 1773.787,1010.624 
					1778.09,1005.574 1781.934,1010.438 1780.094,1010.511 1780.134,1015.283 1787.023,1016.289 1786.684,973.111 1788.684,973.111 
					1779.521,966.416 1769.674,973.111 1770,973.111 1770,981.111 1682.684,981.111 1253,978.931 1253,1009.111 1256,1009.111 
					1256,1031.111 1253,1031.111 1253,1203.111 1262,1203.111 1262,1207.111 1327,1207.111 1327,1211.111 1333,1211.111 
					1333,1201.111 1349,1201.111 1349,1227.5 1356.717,1236.525 1353,1239.393 1353,1265.5 1360,1283.839 1360,1329.5 
					1365.701,1338.111 1756.301,1338.111 1760.859,1329.174 1761.193,1228.909 1759.076,1227.738 1762.196,1202.663 
					1767.974,1202.508 1767.141,1147.404 1768,1144.33 1768,1127.267 1766.479,1123.789 1779.877,1091.141 1774.006,1081.766 
					1773.776,1058.152 1770.565,1051.625 1775.168,1048.733 				"/>
			</g>
			<g id="tower-outline2">
				<polygon style="fill:none;stroke:#000000;stroke-width:2;stroke-miterlimit:10;" points="880.851,531.793 871.818,545.456 
					873.97,546.796 862.998,562.992 867,567.512 867,620.5 856.622,638.641 858.719,640.292 846.057,659.084 850,663.359 
					850,680.111 880.684,680.111 				"/>
				<polygon style="fill:none;stroke:#000000;stroke-width:2;stroke-miterlimit:10;" points="1146.796,531.793 1155.83,545.456 
					1153.677,546.796 1163.325,562.992 1158,567.512 1158,620.5 1169.702,638.641 1168.266,640.292 1179.936,659.084 1175,663.359 
					1175,680.111 1146.964,680.111 				"/>
			</g>
		</g>
	</g>
	<g id="window">
		<g id="windowGlass">
			<g id="center-window">
				
					<rect x="1160.582" y="1153.324" style="fill:none;stroke:#000000;stroke-width:2;stroke-miterlimit:10;" width="10.419" height="27.737"/>
				
					<rect x="1174.874" y="1153.324" style="fill:none;stroke:#000000;stroke-width:2;stroke-miterlimit:10;" width="10.419" height="27.737"/>
				
					<rect x="1188.653" y="1153.324" style="fill:none;stroke:#000000;stroke-width:2;stroke-miterlimit:10;" width="10.419" height="27.737"/>
				
					<rect x="834.072" y="1153.324" style="fill:none;stroke:#000000;stroke-width:2;stroke-miterlimit:10;" width="10.419" height="27.737"/>
				
					<rect x="848.365" y="1153.324" style="fill:none;stroke:#000000;stroke-width:2;stroke-miterlimit:10;" width="10.419" height="27.737"/>
				
					<rect x="862.143" y="1153.324" style="fill:none;stroke:#000000;stroke-width:2;stroke-miterlimit:10;" width="10.419" height="27.737"/>
				
					<rect x="841.282" y="1035.043" style="fill:none;stroke:#000000;stroke-width:2;stroke-miterlimit:10;" width="10.419" height="27.737"/>
				
					<rect x="855.06" y="1035.043" style="fill:none;stroke:#000000;stroke-width:2;stroke-miterlimit:10;" width="10.419" height="27.737"/>
				
					<rect x="1166.985" y="1035.043" style="fill:none;stroke:#000000;stroke-width:2;stroke-miterlimit:10;" width="10.419" height="27.737"/>
				
					<rect x="1180.764" y="1035.043" style="fill:none;stroke:#000000;stroke-width:2;stroke-miterlimit:10;" width="10.419" height="27.737"/>
				
					<rect x="1173.874" y="958.804" style="fill:none;stroke:#000000;stroke-width:2;stroke-miterlimit:10;" width="10.419" height="27.737"/>
				
					<rect x="847.491" y="958.804" style="fill:none;stroke:#000000;stroke-width:2;stroke-miterlimit:10;" width="10.419" height="27.737"/>
				
					<rect x="996.522" y="855.523" style="fill:none;stroke:#000000;stroke-width:2;stroke-miterlimit:10;" width="10.419" height="27.737"/>
				
					<rect x="1010.814" y="855.523" style="fill:none;stroke:#000000;stroke-width:2;stroke-miterlimit:10;" width="10.419" height="27.737"/>
				
					<rect x="1024.593" y="855.523" style="fill:none;stroke:#000000;stroke-width:2;stroke-miterlimit:10;" width="10.419" height="27.737"/>
				
					<rect x="927.965" y="855.523" style="fill:none;stroke:#000000;stroke-width:2;stroke-miterlimit:10;" width="10.419" height="27.737"/>
				
					<rect x="1091.729" y="855.523" style="fill:none;stroke:#000000;stroke-width:2;stroke-miterlimit:10;" width="10.419" height="27.737"/>
				<path style="fill:none;stroke:#000000;stroke-width:2;stroke-miterlimit:10;" d="M831,1313.111h20V1270.5c0,0-9-5.845-20,0
					V1313.111z"/>
				<path style="fill:none;stroke:#000000;stroke-width:2;stroke-miterlimit:10;" d="M855,1313.111h20V1270.5c0,0-9-5.845-20,0
					V1313.111z"/>
				<path style="fill:none;stroke:#000000;stroke-width:2;stroke-miterlimit:10;" d="M1158,1313.111h20V1270.5c0,0-9-5.845-20,0
					V1313.111z"/>
				<path style="fill:none;stroke:#000000;stroke-width:2;stroke-miterlimit:10;" d="M1182,1313.111h20V1270.5c0,0-9-5.845-20,0
					V1313.111z"/>
				<rect x="926" y="1232.111" style="fill:none;stroke:#000000;stroke-width:2;stroke-miterlimit:10;" width="13" height="31"/>
				<path style="fill:none;stroke:#000000;stroke-width:2;stroke-miterlimit:10;" d="M926,1227.111h13V1198.5c0,0,0-5.091-6.5-5.091
					c-6.522,0-6.5,5.737-6.5,5.737V1227.111z"/>
				<rect x="926" y="1121.111" style="fill:none;stroke:#000000;stroke-width:2;stroke-miterlimit:10;" width="13" height="31"/>
				<path style="fill:none;stroke:#000000;stroke-width:2;stroke-miterlimit:10;" d="M926,1116.111h13V1087.5c0,0,0-5.091-6.5-5.091
					c-6.522,0-6.5,5.737-6.5,5.737V1116.111z"/>
				<rect x="926" y="1012.111" style="fill:none;stroke:#000000;stroke-width:2;stroke-miterlimit:10;" width="13" height="31"/>
				<path style="fill:none;stroke:#000000;stroke-width:2;stroke-miterlimit:10;" d="M926,1007.111h13V978.25c0,0,0-5.091-6.5-5.091
					c-6.522,0-6.5,5.737-6.5,5.737V1007.111z"/>
				<rect x="1091" y="1012.111" style="fill:none;stroke:#000000;stroke-width:2;stroke-miterlimit:10;" width="13" height="31"/>
				<path style="fill:none;stroke:#000000;stroke-width:2;stroke-miterlimit:10;" d="M1091,1007.111h13V978.5c0,0,0-5.091-6.5-5.091
					c-6.522,0-6.5,5.737-6.5,5.737V1007.111z"/>
				<rect x="1091" y="1121.111" style="fill:none;stroke:#000000;stroke-width:2;stroke-miterlimit:10;" width="13" height="31"/>
				<path style="fill:none;stroke:#000000;stroke-width:2;stroke-miterlimit:10;" d="M1091,1116.111h13V1087.7
					c0,0,0-5.091-6.5-5.091c-6.522,0-6.5,5.737-6.5,5.737V1116.111z"/>
				<rect x="1091" y="1232.111" style="fill:none;stroke:#000000;stroke-width:2;stroke-miterlimit:10;" width="13" height="31"/>
				<path style="fill:none;stroke:#000000;stroke-width:2;stroke-miterlimit:10;" d="M1091,1227.111h13V1198.7
					c0,0,0-5.091-6.5-5.091c-6.522,0-6.5,5.737-6.5,5.737V1227.111z"/>
				<rect x="991" y="1121.111" style="fill:none;stroke:#000000;stroke-width:2;stroke-miterlimit:10;" width="13" height="31"/>
				<path style="fill:none;stroke:#000000;stroke-width:2;stroke-miterlimit:10;" d="M991,1116.111h13V1087.5c0,0,0-5.091-6.5-5.091
					c-6.522,0-6.5,5.737-6.5,5.737V1116.111z"/>
				<rect x="1009" y="1121.111" style="fill:none;stroke:#000000;stroke-width:2;stroke-miterlimit:10;" width="13" height="31"/>
				<path style="fill:none;stroke:#000000;stroke-width:2;stroke-miterlimit:10;" d="M1009,1116.111h13V1087.5
					c0,0,0-5.091-6.5-5.091c-6.522,0-6.5,5.737-6.5,5.737V1116.111z"/>
				<rect x="1027" y="1121.111" style="fill:none;stroke:#000000;stroke-width:2;stroke-miterlimit:10;" width="13" height="31"/>
				<path style="fill:none;stroke:#000000;stroke-width:2;stroke-miterlimit:10;" d="M1027,1116.111h13V1087.5
					c0,0,0-5.091-6.5-5.091c-6.522,0-6.5,5.737-6.5,5.737V1116.111z"/>
				<rect x="992" y="1232.111" style="fill:none;stroke:#000000;stroke-width:2;stroke-miterlimit:10;" width="13" height="31"/>
				<path style="fill:none;stroke:#000000;stroke-width:2;stroke-miterlimit:10;" d="M992,1227.111h13V1198.5c0,0,0-5.091-6.5-5.091
					c-6.522,0-6.5,5.737-6.5,5.737V1227.111z"/>
				<rect x="1010" y="1232.111" style="fill:none;stroke:#000000;stroke-width:2;stroke-miterlimit:10;" width="13" height="31"/>
				<path style="fill:none;stroke:#000000;stroke-width:2;stroke-miterlimit:10;" d="M1010,1227.111h13V1198.5
					c0,0,0-5.091-6.5-5.091c-6.522,0-6.5,5.737-6.5,5.737V1227.111z"/>
				<rect x="1028" y="1232.111" style="fill:none;stroke:#000000;stroke-width:2;stroke-miterlimit:10;" width="13" height="31"/>
				<path style="fill:none;stroke:#000000;stroke-width:2;stroke-miterlimit:10;" d="M1028,1227.111h13V1198.5
					c0,0,0-5.091-6.5-5.091c-6.522,0-6.5,5.737-6.5,5.737V1227.111z"/>
				<rect x="1000" y="1012.111" style="fill:none;stroke:#000000;stroke-width:2;stroke-miterlimit:10;" width="13" height="31"/>
				<path style="fill:none;stroke:#000000;stroke-width:2;stroke-miterlimit:10;" d="M1000,1007.111h13V978.5
					c0,0-0.313-5.091-6.5-5.091c-6.208,0-6.5,5.737-6.5,5.737V1007.111z"/>
				<rect x="1017" y="1012.111" style="fill:none;stroke:#000000;stroke-width:2;stroke-miterlimit:10;" width="13" height="31"/>
				<path style="fill:none;stroke:#000000;stroke-width:2;stroke-miterlimit:10;" d="M1017,1007.111h13V978.5
					c0,0-0.313-5.091-6.5-5.091c-6.208,0-6.5,5.737-6.5,5.737V1007.111z"/>
			</g>
			<g id="side-window">
				<path style="fill:none;stroke:#000000;stroke-width:2;stroke-miterlimit:10;" d="M1801,1270.43v49.68h20v-49.68
					c0,0-4.5-4.827-10-4.827S1801,1270.43,1801,1270.43z"/>
				<path style="fill:none;stroke:#000000;stroke-width:2;stroke-miterlimit:10;" d="M1800,1160.43v49.68h19v-49.68
					c0,0-4.138-4.827-9.5-4.827S1800,1160.43,1800,1160.43z"/>
				
					<rect x="1800.526" y="1064.146" style="fill:none;stroke:#000000;stroke-width:2;stroke-miterlimit:10;" width="9.064" height="29.655"/>
				
					<rect x="1813.737" y="1064.146" style="fill:none;stroke:#000000;stroke-width:2;stroke-miterlimit:10;" width="9.064" height="29.655"/>
				<path style="fill:none;stroke:#000000;stroke-width:2;stroke-miterlimit:10;" d="M229,1270.43v49.68h-20v-49.68
					c0,0,4.5-4.827,10-4.827S229,1270.43,229,1270.43z"/>
				<path style="fill:none;stroke:#000000;stroke-width:2;stroke-miterlimit:10;" d="M228,1160.43v49.68h-19v-49.68
					c0,0,4.138-4.827,9.5-4.827S228,1160.43,228,1160.43z"/>
				
					<rect x="222.59" y="1064.146" style="fill:none;stroke:#000000;stroke-width:2;stroke-miterlimit:10;" width="9.064" height="29.655"/>
				
					<rect x="209.378" y="1064.146" style="fill:none;stroke:#000000;stroke-width:2;stroke-miterlimit:10;" width="9.064" height="29.655"/>
				<g id="Layer_45">
					<path style="fill:none;stroke:#000000;stroke-width:2;stroke-miterlimit:10;" d="M53,1271.43v49.68h20v-49.68
						c0,0-4.5-4.827-10-4.827S53,1271.43,53,1271.43z"/>
					<path style="fill:none;stroke:#000000;stroke-width:2;stroke-miterlimit:10;" d="M54,1161.43v49.68h19v-49.68
						c0,0-4.138-4.827-9.5-4.827S54,1161.43,54,1161.43z"/>
					
						<rect x="52.378" y="1065.146" style="fill:none;stroke:#000000;stroke-width:2;stroke-miterlimit:10;" width="9.064" height="29.655"/>
					
						<rect x="65.59" y="1065.146" style="fill:none;stroke:#000000;stroke-width:2;stroke-miterlimit:10;" width="9.064" height="29.655"/>
					<path style="fill:none;stroke:#000000;stroke-width:2;stroke-miterlimit:10;" d="M128,1271.43v49.68h28v-49.68
						c0,0-6.301-4.827-14-4.827S128,1271.43,128,1271.43z"/>
					<path style="fill:none;stroke:#000000;stroke-width:2;stroke-miterlimit:10;" d="M128,1160.43v49.68h28v-49.68
						c0,0-6.301-4.827-14-4.827S128,1160.43,128,1160.43z"/>
					
						<rect x="129.184" y="1068.146" style="fill:none;stroke:#000000;stroke-width:2;stroke-miterlimit:10;" width="9.064" height="26.479"/>
					
						<rect x="146.184" y="1068.146" style="fill:none;stroke:#000000;stroke-width:2;stroke-miterlimit:10;" width="9.064" height="26.479"/>
					<path style="fill:none;stroke:#000000;stroke-width:2;stroke-miterlimit:10;" d="M1876,1269.43v49.68h28v-49.68
						c0,0-6.301-4.827-14-4.827S1876,1269.43,1876,1269.43z"/>
					<path style="fill:none;stroke:#000000;stroke-width:2;stroke-miterlimit:10;" d="M1876,1158.43v49.68h28v-49.68
						c0,0-6.301-4.827-14-4.827S1876,1158.43,1876,1158.43z"/>
					
						<rect x="1877.184" y="1066.146" style="fill:none;stroke:#000000;stroke-width:2;stroke-miterlimit:10;" width="9.064" height="26.479"/>
					
						<rect x="1894.184" y="1066.146" style="fill:none;stroke:#000000;stroke-width:2;stroke-miterlimit:10;" width="9.064" height="26.479"/>
				</g>
				<g id="Layer_44">
					<path style="fill:none;stroke:#000000;stroke-width:2;stroke-miterlimit:10;" d="M1976,1270.43v49.68h-20v-49.68
						c0,0,4.5-4.827,10-4.827S1976,1270.43,1976,1270.43z"/>
					<path style="fill:none;stroke:#000000;stroke-width:2;stroke-miterlimit:10;" d="M1976,1160.43v49.68h-19v-49.68
						c0,0,4.138-4.827,9.5-4.827S1976,1160.43,1976,1160.43z"/>
					
						<rect x="1970.737" y="1064.146" style="fill:none;stroke:#000000;stroke-width:2;stroke-miterlimit:10;" width="9.064" height="29.655"/>
					
						<rect x="1957.526" y="1064.146" style="fill:none;stroke:#000000;stroke-width:2;stroke-miterlimit:10;" width="9.064" height="29.655"/>
				</g>
			</g>
			<g id="centerSide-window">
				<rect x="723" y="1283.111" style="fill:none;stroke:#000000;stroke-width:2;stroke-miterlimit:10;" width="7" height="29"/>
				<rect x="733" y="1283.111" style="fill:none;stroke:#000000;stroke-width:2;stroke-miterlimit:10;" width="7" height="29"/>
				<rect x="747" y="1283.111" style="fill:none;stroke:#000000;stroke-width:2;stroke-miterlimit:10;" width="7" height="29"/>
				<rect x="757" y="1283.111" style="fill:none;stroke:#000000;stroke-width:2;stroke-miterlimit:10;" width="7" height="29"/>
				<path style="fill:none;stroke:#000000;stroke-width:2;stroke-miterlimit:10;" d="M723,1281.111h17V1270.5
					c0,0-2.413-2.875-8.5-2.875s-8.5,2.955-8.5,2.955V1281.111z"/>
				<path style="fill:none;stroke:#000000;stroke-width:2;stroke-miterlimit:10;" d="M747,1281.111h17V1270.5
					c0,0-2.413-2.875-8.5-2.875s-8.5,2.955-8.5,2.955V1281.111z"/>
				<path style="fill:none;stroke:#000000;stroke-width:2;stroke-miterlimit:10;" d="M1268,1270.851v23.26h8V1267.9
					C1276,1267.9,1271,1266.833,1268,1270.851z"/>
				<path style="fill:none;stroke:#000000;stroke-width:2;stroke-miterlimit:10;" d="M1286,1270.851v23.26h-8V1267.9
					C1278,1267.9,1284,1266.833,1286,1270.851z"/>
				<path style="fill:none;stroke:#000000;stroke-width:2;stroke-miterlimit:10;" d="M1293,1270.851v23.26h8V1267.9
					C1301,1267.9,1296,1266.833,1293,1270.851z"/>
				<path style="fill:none;stroke:#000000;stroke-width:2;stroke-miterlimit:10;" d="M1311,1270.851v23.26h-8V1267.9
					C1303,1267.9,1309,1266.833,1311,1270.851z"/>
			</g>
			<g id="main-window">
				
					<rect x="1516.28" y="1034.513" style="fill:none;stroke:#000000;stroke-width:2;stroke-miterlimit:10;" width="10.419" height="27.737"/>
				
					<rect x="1501.987" y="1034.513" style="fill:none;stroke:#000000;stroke-width:2;stroke-miterlimit:10;" width="10.419" height="27.737"/>
				
					<rect x="1488.209" y="1034.513" style="fill:none;stroke:#000000;stroke-width:2;stroke-miterlimit:10;" width="10.419" height="27.737"/>
				
					<rect x="1406.937" y="1034.513" style="fill:none;stroke:#000000;stroke-width:2;stroke-miterlimit:10;" width="10.419" height="27.737"/>
				
					<rect x="1392.645" y="1034.513" style="fill:none;stroke:#000000;stroke-width:2;stroke-miterlimit:10;" width="10.419" height="27.737"/>
				
					<rect x="1378.866" y="1034.513" style="fill:none;stroke:#000000;stroke-width:2;stroke-miterlimit:10;" width="10.419" height="27.737"/>
				
					<rect x="1298.081" y="1034.513" style="fill:none;stroke:#000000;stroke-width:2;stroke-miterlimit:10;" width="10.419" height="27.737"/>
				
					<rect x="1283.789" y="1034.513" style="fill:none;stroke:#000000;stroke-width:2;stroke-miterlimit:10;" width="10.419" height="27.737"/>
				
					<rect x="1270.01" y="1034.513" style="fill:none;stroke:#000000;stroke-width:2;stroke-miterlimit:10;" width="10.419" height="27.737"/>
				
					<rect x="1735.289" y="1034.513" style="fill:none;stroke:#000000;stroke-width:2;stroke-miterlimit:10;" width="10.419" height="27.737"/>
				
					<rect x="1720.996" y="1034.513" style="fill:none;stroke:#000000;stroke-width:2;stroke-miterlimit:10;" width="10.419" height="27.737"/>
				
					<rect x="1707.218" y="1034.513" style="fill:none;stroke:#000000;stroke-width:2;stroke-miterlimit:10;" width="10.419" height="27.737"/>
				
					<rect x="1625.453" y="1034.513" style="fill:none;stroke:#000000;stroke-width:2;stroke-miterlimit:10;" width="10.419" height="27.737"/>
				
					<rect x="1611.16" y="1034.513" style="fill:none;stroke:#000000;stroke-width:2;stroke-miterlimit:10;" width="10.419" height="27.737"/>
				
					<rect x="1597.381" y="1034.513" style="fill:none;stroke:#000000;stroke-width:2;stroke-miterlimit:10;" width="10.419" height="27.737"/>
				
					<rect x="505.681" y="1034.513" style="fill:none;stroke:#000000;stroke-width:2;stroke-miterlimit:10;" width="10.419" height="27.737"/>
				
					<rect x="519.974" y="1034.513" style="fill:none;stroke:#000000;stroke-width:2;stroke-miterlimit:10;" width="10.419" height="27.737"/>
				
					<rect x="533.752" y="1034.513" style="fill:none;stroke:#000000;stroke-width:2;stroke-miterlimit:10;" width="10.419" height="27.737"/>
				
					<rect x="615.024" y="1034.513" style="fill:none;stroke:#000000;stroke-width:2;stroke-miterlimit:10;" width="10.419" height="27.737"/>
				
					<rect x="629.316" y="1034.513" style="fill:none;stroke:#000000;stroke-width:2;stroke-miterlimit:10;" width="10.419" height="27.737"/>
				
					<rect x="643.095" y="1034.513" style="fill:none;stroke:#000000;stroke-width:2;stroke-miterlimit:10;" width="10.419" height="27.737"/>
				
					<rect x="723.88" y="1034.513" style="fill:none;stroke:#000000;stroke-width:2;stroke-miterlimit:10;" width="10.419" height="27.737"/>
				
					<rect x="738.172" y="1034.513" style="fill:none;stroke:#000000;stroke-width:2;stroke-miterlimit:10;" width="10.419" height="27.737"/>
				
					<rect x="751.951" y="1034.513" style="fill:none;stroke:#000000;stroke-width:2;stroke-miterlimit:10;" width="10.419" height="27.737"/>
				
					<rect x="286.672" y="1034.513" style="fill:none;stroke:#000000;stroke-width:2;stroke-miterlimit:10;" width="10.419" height="27.737"/>
				
					<rect x="300.965" y="1034.513" style="fill:none;stroke:#000000;stroke-width:2;stroke-miterlimit:10;" width="10.419" height="27.737"/>
				
					<rect x="314.743" y="1034.513" style="fill:none;stroke:#000000;stroke-width:2;stroke-miterlimit:10;" width="10.419" height="27.737"/>
				
					<rect x="396.509" y="1034.513" style="fill:none;stroke:#000000;stroke-width:2;stroke-miterlimit:10;" width="10.419" height="27.737"/>
				
					<rect x="410.801" y="1034.513" style="fill:none;stroke:#000000;stroke-width:2;stroke-miterlimit:10;" width="10.419" height="27.737"/>
				
					<rect x="424.58" y="1034.513" style="fill:none;stroke:#000000;stroke-width:2;stroke-miterlimit:10;" width="10.419" height="27.737"/>
				<path style="fill:none;stroke:#000000;stroke-width:2;stroke-miterlimit:10;" d="M492,1320.111h26V1268.5
					c0,0-3.098-3.897-13-3.897c-10.435,0-13,4.402-13,4.402V1320.111z"/>
				<path style="fill:none;stroke:#000000;stroke-width:2;stroke-miterlimit:10;" d="M533,1320.111h26V1268.5
					c0,0-3.098-3.897-13-3.897c-10.435,0-13,4.402-13,4.402V1320.111z"/>
				<path style="fill:none;stroke:#000000;stroke-width:2;stroke-miterlimit:10;" d="M601,1320.111h26V1268.5
					c0,0-3.098-3.897-13-3.897c-10.435,0-13,4.402-13,4.402V1320.111z"/>
				<path style="fill:none;stroke:#000000;stroke-width:2;stroke-miterlimit:10;" d="M642,1320.111h26V1268.5
					c0,0-3.098-3.897-13-3.897c-10.435,0-13,4.402-13,4.402V1320.111z"/>
				<path style="fill:none;stroke:#000000;stroke-width:2;stroke-miterlimit:10;" d="M382,1320.111h26V1268.5
					c0,0-3.098-3.897-13-3.897c-10.435,0-13,4.402-13,4.402V1320.111z"/>
				<path style="fill:none;stroke:#000000;stroke-width:2;stroke-miterlimit:10;" d="M423,1320.111h26V1268.5
					c0,0-3.098-3.897-13-3.897c-10.435,0-13,4.402-13,4.402V1320.111z"/>
				<path style="fill:none;stroke:#000000;stroke-width:2;stroke-miterlimit:10;" d="M273,1320.111h26V1268.5
					c0,0-3.098-3.897-13-3.897c-10.435,0-13,4.402-13,4.402V1320.111z"/>
				<path style="fill:none;stroke:#000000;stroke-width:2;stroke-miterlimit:10;" d="M314,1320.111h26V1268.5
					c0,0-3.098-3.897-13-3.897c-10.435,0-13,4.402-13,4.402V1320.111z"/>
				<rect x="494" y="1167.111" style="fill:none;stroke:#000000;stroke-width:2;stroke-miterlimit:10;" width="15" height="41"/>
				<rect x="541" y="1167.111" style="fill:none;stroke:#000000;stroke-width:2;stroke-miterlimit:10;" width="14" height="41"/>
				<rect x="513" y="1167.111" style="fill:none;stroke:#000000;stroke-width:2;stroke-miterlimit:10;" width="23" height="41"/>
				<path style="fill:none;stroke:#000000;stroke-width:2;stroke-miterlimit:10;" d="M555,1163.111h-15v-20.527
					c0,0,8,1.228,15,9.208V1163.111z"/>
				<path style="fill:none;stroke:#000000;stroke-width:2;stroke-miterlimit:10;" d="M513,1163.111h23v-20.193
					c0,0-4.019-4.775-11.5-4.775c-7.426,0-11.5,4.671-11.5,4.671V1163.111z"/>
				<path style="fill:none;stroke:#000000;stroke-width:2;stroke-miterlimit:10;" d="M494,1163.111h15v-20.527c0,0-8,1.228-15,9.208
					V1163.111z"/>
				<rect x="604" y="1167.111" style="fill:none;stroke:#000000;stroke-width:2;stroke-miterlimit:10;" width="15" height="41"/>
				<rect x="651" y="1167.111" style="fill:none;stroke:#000000;stroke-width:2;stroke-miterlimit:10;" width="14" height="41"/>
				<rect x="623" y="1167.111" style="fill:none;stroke:#000000;stroke-width:2;stroke-miterlimit:10;" width="23" height="41"/>
				<path style="fill:none;stroke:#000000;stroke-width:2;stroke-miterlimit:10;" d="M665,1163.111h-15v-20.527
					c0,0,8,1.228,15,9.208V1163.111z"/>
				<path style="fill:none;stroke:#000000;stroke-width:2;stroke-miterlimit:10;" d="M623,1163.111h23v-20.193
					c0,0-4.019-4.775-11.5-4.775c-7.426,0-11.5,4.671-11.5,4.671V1163.111z"/>
				<path style="fill:none;stroke:#000000;stroke-width:2;stroke-miterlimit:10;" d="M604,1163.111h15v-20.527c0,0-8,1.228-15,9.208
					V1163.111z"/>
				<rect x="713" y="1167.111" style="fill:none;stroke:#000000;stroke-width:2;stroke-miterlimit:10;" width="15" height="41"/>
				<rect x="760" y="1167.111" style="fill:none;stroke:#000000;stroke-width:2;stroke-miterlimit:10;" width="14" height="41"/>
				<rect x="732" y="1167.111" style="fill:none;stroke:#000000;stroke-width:2;stroke-miterlimit:10;" width="23" height="41"/>
				<path style="fill:none;stroke:#000000;stroke-width:2;stroke-miterlimit:10;" d="M774,1163.111h-15v-20.527
					c0,0,8,1.228,15,9.208V1163.111z"/>
				<path style="fill:none;stroke:#000000;stroke-width:2;stroke-miterlimit:10;" d="M732,1163.111h23v-20.193
					c0,0-4.019-4.775-11.5-4.775c-7.426,0-11.5,4.671-11.5,4.671V1163.111z"/>
				<path style="fill:none;stroke:#000000;stroke-width:2;stroke-miterlimit:10;" d="M713,1163.111h15v-20.527c0,0-8,1.228-15,9.208
					V1163.111z"/>
				<rect x="385" y="1167.111" style="fill:none;stroke:#000000;stroke-width:2;stroke-miterlimit:10;" width="15" height="41"/>
				<rect x="432" y="1167.111" style="fill:none;stroke:#000000;stroke-width:2;stroke-miterlimit:10;" width="14" height="41"/>
				<rect x="404" y="1167.111" style="fill:none;stroke:#000000;stroke-width:2;stroke-miterlimit:10;" width="23" height="41"/>
				<path style="fill:none;stroke:#000000;stroke-width:2;stroke-miterlimit:10;" d="M446,1163.111h-15v-20.527
					c0,0,8,1.228,15,9.208V1163.111z"/>
				<path style="fill:none;stroke:#000000;stroke-width:2;stroke-miterlimit:10;" d="M404,1163.111h23v-20.193
					c0,0-4.019-4.775-11.5-4.775c-7.426,0-11.5,4.671-11.5,4.671V1163.111z"/>
				<path style="fill:none;stroke:#000000;stroke-width:2;stroke-miterlimit:10;" d="M385,1163.111h15v-20.527c0,0-8,1.228-15,9.208
					V1163.111z"/>
				<rect x="1258" y="1167.111" style="fill:none;stroke:#000000;stroke-width:2;stroke-miterlimit:10;" width="15" height="41"/>
				<rect x="1305" y="1167.111" style="fill:none;stroke:#000000;stroke-width:2;stroke-miterlimit:10;" width="14" height="41"/>
				<rect x="1277" y="1167.111" style="fill:none;stroke:#000000;stroke-width:2;stroke-miterlimit:10;" width="23" height="41"/>
				<path style="fill:none;stroke:#000000;stroke-width:2;stroke-miterlimit:10;" d="M1319,1163.111h-15v-20.527
					c0,0,8,1.228,15,9.208V1163.111z"/>
				<path style="fill:none;stroke:#000000;stroke-width:2;stroke-miterlimit:10;" d="M1277,1163.111h23v-20.193
					c0,0-4.019-4.775-11.5-4.775c-7.426,0-11.5,4.671-11.5,4.671V1163.111z"/>
				<path style="fill:none;stroke:#000000;stroke-width:2;stroke-miterlimit:10;" d="M1258,1163.111h15v-20.527
					c0,0-8,1.228-15,9.208V1163.111z"/>
				<rect x="1367" y="1167.111" style="fill:none;stroke:#000000;stroke-width:2;stroke-miterlimit:10;" width="15" height="41"/>
				<rect x="1414" y="1167.111" style="fill:none;stroke:#000000;stroke-width:2;stroke-miterlimit:10;" width="14" height="41"/>
				<rect x="1386" y="1167.111" style="fill:none;stroke:#000000;stroke-width:2;stroke-miterlimit:10;" width="23" height="41"/>
				<path style="fill:none;stroke:#000000;stroke-width:2;stroke-miterlimit:10;" d="M1428,1163.111h-15v-20.527
					c0,0,8,1.228,15,9.208V1163.111z"/>
				<path style="fill:none;stroke:#000000;stroke-width:2;stroke-miterlimit:10;" d="M1386,1163.111h23v-20.193
					c0,0-4.019-4.775-11.5-4.775c-7.426,0-11.5,4.671-11.5,4.671V1163.111z"/>
				<path style="fill:none;stroke:#000000;stroke-width:2;stroke-miterlimit:10;" d="M1367,1163.111h15v-20.527
					c0,0-8,1.228-15,9.208V1163.111z"/>
				<rect x="1476" y="1167.111" style="fill:none;stroke:#000000;stroke-width:2;stroke-miterlimit:10;" width="15" height="41"/>
				<rect x="1523" y="1167.111" style="fill:none;stroke:#000000;stroke-width:2;stroke-miterlimit:10;" width="14" height="41"/>
				<rect x="1495" y="1167.111" style="fill:none;stroke:#000000;stroke-width:2;stroke-miterlimit:10;" width="23" height="41"/>
				<path style="fill:none;stroke:#000000;stroke-width:2;stroke-miterlimit:10;" d="M1537,1163.111h-15v-20.527
					c0,0,8,1.228,15,9.208V1163.111z"/>
				<path style="fill:none;stroke:#000000;stroke-width:2;stroke-miterlimit:10;" d="M1495,1163.111h23v-20.193
					c0,0-4.019-4.775-11.5-4.775c-7.426,0-11.5,4.671-11.5,4.671V1163.111z"/>
				<path style="fill:none;stroke:#000000;stroke-width:2;stroke-miterlimit:10;" d="M1476,1163.111h15v-20.527
					c0,0-8,1.228-15,9.208V1163.111z"/>
				<rect x="1585" y="1167.111" style="fill:none;stroke:#000000;stroke-width:2;stroke-miterlimit:10;" width="15" height="41"/>
				<rect x="1632" y="1167.111" style="fill:none;stroke:#000000;stroke-width:2;stroke-miterlimit:10;" width="14" height="41"/>
				<rect x="1604" y="1167.111" style="fill:none;stroke:#000000;stroke-width:2;stroke-miterlimit:10;" width="23" height="41"/>
				<path style="fill:none;stroke:#000000;stroke-width:2;stroke-miterlimit:10;" d="M1646,1163.111h-15v-20.527
					c0,0,8,1.228,15,9.208V1163.111z"/>
				<path style="fill:none;stroke:#000000;stroke-width:2;stroke-miterlimit:10;" d="M1604,1163.111h23v-20.193
					c0,0-4.019-4.775-11.5-4.775c-7.426,0-11.5,4.671-11.5,4.671V1163.111z"/>
				<path style="fill:none;stroke:#000000;stroke-width:2;stroke-miterlimit:10;" d="M1585,1163.111h15v-20.527
					c0,0-8,1.228-15,9.208V1163.111z"/>
				<rect x="1694" y="1167.111" style="fill:none;stroke:#000000;stroke-width:2;stroke-miterlimit:10;" width="15" height="41"/>
				<rect x="1741" y="1167.111" style="fill:none;stroke:#000000;stroke-width:2;stroke-miterlimit:10;" width="14" height="41"/>
				<rect x="1713" y="1167.111" style="fill:none;stroke:#000000;stroke-width:2;stroke-miterlimit:10;" width="23" height="41"/>
				<path style="fill:none;stroke:#000000;stroke-width:2;stroke-miterlimit:10;" d="M1755,1163.111h-15v-20.527
					c0,0,8,1.228,15,9.208V1163.111z"/>
				<path style="fill:none;stroke:#000000;stroke-width:2;stroke-miterlimit:10;" d="M1713,1163.111h23v-20.193
					c0,0-4.019-4.775-11.5-4.775c-7.426,0-11.5,4.671-11.5,4.671V1163.111z"/>
				<path style="fill:none;stroke:#000000;stroke-width:2;stroke-miterlimit:10;" d="M1694,1163.111h15v-20.527
					c0,0-8,1.228-15,9.208V1163.111z"/>
				<path style="fill:none;stroke:#000000;stroke-width:2;stroke-miterlimit:10;" d="M1364,1321.111h26V1269.5
					c0,0-3.098-3.897-13-3.897c-10.435,0-13,4.402-13,4.402V1321.111z"/>
				<path style="fill:none;stroke:#000000;stroke-width:2;stroke-miterlimit:10;" d="M1405,1321.111h26V1269.5
					c0,0-3.098-3.897-13-3.897c-10.435,0-13,4.402-13,4.402V1321.111z"/>
				<path style="fill:none;stroke:#000000;stroke-width:2;stroke-miterlimit:10;" d="M1474,1321.111h26V1269.5
					c0,0-3.098-3.897-13-3.897c-10.435,0-13,4.402-13,4.402V1321.111z"/>
				<path style="fill:none;stroke:#000000;stroke-width:2;stroke-miterlimit:10;" d="M1515,1321.111h26V1269.5
					c0,0-3.098-3.897-13-3.897c-10.435,0-13,4.402-13,4.402V1321.111z"/>
				<path style="fill:none;stroke:#000000;stroke-width:2;stroke-miterlimit:10;" d="M1582,1321.111h26V1269.5
					c0,0-3.098-3.897-13-3.897c-10.435,0-13,4.402-13,4.402V1321.111z"/>
				<path style="fill:none;stroke:#000000;stroke-width:2;stroke-miterlimit:10;" d="M1623,1321.111h26V1269.5
					c0,0-3.098-3.897-13-3.897c-10.435,0-13,4.402-13,4.402V1321.111z"/>
				<path style="fill:none;stroke:#000000;stroke-width:2;stroke-miterlimit:10;" d="M1692,1321.111h26V1269.5
					c0,0-3.098-3.897-13-3.897c-10.435,0-13,4.402-13,4.402V1321.111z"/>
				<path style="fill:none;stroke:#000000;stroke-width:2;stroke-miterlimit:10;" d="M1733,1321.111h26V1269.5
					c0,0-3.098-3.897-13-3.897c-10.435,0-13,4.402-13,4.402V1321.111z"/>
				<rect x="276" y="1167.111" style="fill:none;stroke:#000000;stroke-width:2;stroke-miterlimit:10;" width="15" height="41"/>
				<rect x="323" y="1167.111" style="fill:none;stroke:#000000;stroke-width:2;stroke-miterlimit:10;" width="14" height="41"/>
				<rect x="295" y="1167.111" style="fill:none;stroke:#000000;stroke-width:2;stroke-miterlimit:10;" width="23" height="41"/>
				<path style="fill:none;stroke:#000000;stroke-width:2;stroke-miterlimit:10;" d="M337,1163.111h-15v-20.527
					c0,0,8,1.228,15,9.208V1163.111z"/>
				<path style="fill:none;stroke:#000000;stroke-width:2;stroke-miterlimit:10;" d="M295,1163.111h23v-20.193
					c0,0-4.019-4.775-11.5-4.775c-7.426,0-11.5,4.671-11.5,4.671V1163.111z"/>
				<path style="fill:none;stroke:#000000;stroke-width:2;stroke-miterlimit:10;" d="M276,1163.111h15v-20.527c0,0-8,1.228-15,9.208
					V1163.111z"/>
			</g>
		</g>
		<g id="windowOuter">
			<g id="side-windowOuter">
				
					<rect x="1796.164" y="1062.5" style="fill:none;stroke:#000000;stroke-width:2;stroke-miterlimit:10;" width="26.852" height="41.966"/>
				
					<rect x="1796.164" y="1152.068" style="fill:none;stroke:#000000;stroke-width:2;stroke-miterlimit:10;" width="24.818" height="62.249"/>
				
					<rect x="1796.164" y="1262.221" style="fill:none;stroke:#000000;stroke-width:2;stroke-miterlimit:10;" width="26.852" height="65.186"/>
				
					<rect x="209.503" y="1062.5" style="fill:none;stroke:#000000;stroke-width:2;stroke-miterlimit:10;" width="26.852" height="41.966"/>
				
					<rect x="209.503" y="1152.068" style="fill:none;stroke:#000000;stroke-width:2;stroke-miterlimit:10;" width="25.835" height="62.249"/>
				
					<rect x="209.503" y="1262.221" style="fill:none;stroke:#000000;stroke-width:2;stroke-miterlimit:10;" width="26.852" height="65.186"/>
				
					<rect x="126.371" y="1065.146" style="fill:none;stroke:#000000;stroke-width:2;stroke-miterlimit:10;" width="33" height="39.32"/>
				
					<rect x="124.371" y="1151.998" style="fill:none;stroke:#000000;stroke-width:2;stroke-miterlimit:10;" width="37" height="62.249"/>
				
					<rect x="125.433" y="1262.151" style="fill:none;stroke:#000000;stroke-width:2;stroke-miterlimit:10;" width="34.876" height="66.433"/>
				
					<rect x="1874.371" y="1064.146" style="fill:none;stroke:#000000;stroke-width:2;stroke-miterlimit:10;" width="33" height="39.32"/>
				
					<rect x="1872.371" y="1150.998" style="fill:none;stroke:#000000;stroke-width:2;stroke-miterlimit:10;" width="37" height="62.249"/>
				
					<rect x="1873.433" y="1261.151" style="fill:none;stroke:#000000;stroke-width:2;stroke-miterlimit:10;" width="34.876" height="66.433"/>
				<g id="Layer_43">
					
						<rect x="1957.331" y="1062.43" style="fill:none;stroke:#000000;stroke-width:2;stroke-miterlimit:10;" width="26.852" height="41.966"/>
					
						<rect x="1957.331" y="1151.998" style="fill:none;stroke:#000000;stroke-width:2;stroke-miterlimit:10;" width="25.835" height="62.249"/>
					
						<rect x="1957.331" y="1262.151" style="fill:none;stroke:#000000;stroke-width:2;stroke-miterlimit:10;" width="26.852" height="65.186"/>
				</g>
				<g id="Layer_42">
					
						<rect x="48.331" y="1062.43" style="fill:none;stroke:#000000;stroke-width:2;stroke-miterlimit:10;" width="26.852" height="41.966"/>
					
						<rect x="49.348" y="1151.998" style="fill:none;stroke:#000000;stroke-width:2;stroke-miterlimit:10;" width="25.835" height="62.249"/>
					
						<rect x="48.331" y="1262.151" style="fill:none;stroke:#000000;stroke-width:2;stroke-miterlimit:10;" width="26.852" height="65.186"/>
				</g>
			</g>
			<g id="centerSide-windowOuter">
				
					<rect x="720.287" y="1265.474" style="fill:none;stroke:#000000;stroke-width:2;stroke-miterlimit:10;" width="48.947" height="51.642"/>
				
					<rect x="1264.781" y="1264.072" style="fill:none;stroke:#000000;stroke-width:2;stroke-miterlimit:10;" width="54.688" height="35.237"/>
			</g>
			<g id="main-windowOuter">
				
					<rect x="273.184" y="1262.034" style="fill:none;stroke:#000000;stroke-width:2;stroke-miterlimit:10;" width="30.212" height="66.551"/>
				
					<rect x="311.256" y="1262.034" style="fill:none;stroke:#000000;stroke-width:2;stroke-miterlimit:10;" width="33.844" height="66.551"/>
				
					<rect x="379.666" y="1262.034" style="fill:none;stroke:#000000;stroke-width:2;stroke-miterlimit:10;" width="33.844" height="66.551"/>
				
					<rect x="420.252" y="1262.034" style="fill:none;stroke:#000000;stroke-width:2;stroke-miterlimit:10;" width="33.844" height="66.551"/>
				
					<rect x="489.469" y="1262.034" style="fill:none;stroke:#000000;stroke-width:2;stroke-miterlimit:10;" width="33.844" height="66.551"/>
				
					<rect x="530.055" y="1262.034" style="fill:none;stroke:#000000;stroke-width:2;stroke-miterlimit:10;" width="33.844" height="66.551"/>
				
					<rect x="598.469" y="1262.034" style="fill:none;stroke:#000000;stroke-width:2;stroke-miterlimit:10;" width="33.844" height="66.551"/>
				
					<rect x="639.055" y="1262.034" style="fill:none;stroke:#000000;stroke-width:2;stroke-miterlimit:10;" width="33.844" height="66.551"/>
				<path style="fill:none;stroke:#000000;stroke-width:2;stroke-miterlimit:10;" d="M487,1145.217v71.894h77v-71.894
					c0,0-24.755-17.891-38.5-17.891S487,1145.217,487,1145.217z"/>
				<path style="fill:none;stroke:#000000;stroke-width:2;stroke-miterlimit:10;" d="M597,1145.217v71.894h77v-71.894
					c0,0-24.755-17.891-38.5-17.891S597,1145.217,597,1145.217z"/>
				<path style="fill:none;stroke:#000000;stroke-width:2;stroke-miterlimit:10;" d="M706,1145.217v71.894h77v-71.894
					c0,0-24.755-17.891-38.5-17.891S706,1145.217,706,1145.217z"/>
				<path style="fill:none;stroke:#000000;stroke-width:2;stroke-miterlimit:10;" d="M378,1145.217v71.894h77v-71.894
					c0,0-24.755-17.891-38.5-17.891S378,1145.217,378,1145.217z"/>
				<path style="fill:none;stroke:#000000;stroke-width:2;stroke-miterlimit:10;" d="M269,1145.217v71.894h77v-71.894
					c0,0-24.755-17.891-38.5-17.891S269,1145.217,269,1145.217z"/>
				<path style="fill:none;stroke:#000000;stroke-width:2;stroke-miterlimit:10;" d="M1251,1145.217v71.894h77v-71.894
					c0,0-24.755-17.891-38.5-17.891S1251,1145.217,1251,1145.217z"/>
				<path style="fill:none;stroke:#000000;stroke-width:2;stroke-miterlimit:10;" d="M1360,1145.217v71.894h77v-71.894
					c0,0-24.755-17.891-38.5-17.891S1360,1145.217,1360,1145.217z"/>
				<path style="fill:none;stroke:#000000;stroke-width:2;stroke-miterlimit:10;" d="M1469,1145.217v71.894h77v-71.894
					c0,0-24.755-17.891-38.5-17.891S1469,1145.217,1469,1145.217z"/>
				<path style="fill:none;stroke:#000000;stroke-width:2;stroke-miterlimit:10;" d="M1578,1145.217v71.894h77v-71.894
					c0,0-24.755-17.891-38.5-17.891S1578,1145.217,1578,1145.217z"/>
				<path style="fill:none;stroke:#000000;stroke-width:2;stroke-miterlimit:10;" d="M1687,1145.217v71.894h77v-71.894
					c0,0-24.755-17.891-38.5-17.891S1687,1145.217,1687,1145.217z"/>
				
					<rect x="1361.469" y="1262.034" style="fill:none;stroke:#000000;stroke-width:2;stroke-miterlimit:10;" width="33.844" height="66.551"/>
				
					<rect x="1402.055" y="1262.034" style="fill:none;stroke:#000000;stroke-width:2;stroke-miterlimit:10;" width="33.844" height="66.551"/>
				
					<rect x="1471.469" y="1262.034" style="fill:none;stroke:#000000;stroke-width:2;stroke-miterlimit:10;" width="33.844" height="66.551"/>
				
					<rect x="1512.055" y="1262.034" style="fill:none;stroke:#000000;stroke-width:2;stroke-miterlimit:10;" width="33.844" height="66.551"/>
				
					<rect x="1579.469" y="1262.034" style="fill:none;stroke:#000000;stroke-width:2;stroke-miterlimit:10;" width="33.844" height="66.551"/>
				
					<rect x="1620.055" y="1262.034" style="fill:none;stroke:#000000;stroke-width:2;stroke-miterlimit:10;" width="33.844" height="66.551"/>
				
					<rect x="1689.469" y="1262.034" style="fill:none;stroke:#000000;stroke-width:2;stroke-miterlimit:10;" width="33.844" height="66.551"/>
				
					<rect x="1730.055" y="1262.034" style="fill:none;stroke:#000000;stroke-width:2;stroke-miterlimit:10;" width="33.844" height="66.551"/>
			</g>
			<g id="center-windowOuter">
				
					<rect x="922.609" y="969.534" style="fill:none;stroke:#000000;stroke-width:2;stroke-miterlimit:10;" width="22.028" height="82.521"/>
				
					<rect x="997.53" y="969.534" style="fill:none;stroke:#000000;stroke-width:2;stroke-miterlimit:10;" width="37.48" height="82.521"/>
				
					<rect x="1086.561" y="969.534" style="fill:none;stroke:#000000;stroke-width:2;stroke-miterlimit:10;" width="23.014" height="82.521"/>
				
					<rect x="923.402" y="1078.631" style="fill:none;stroke:#000000;stroke-width:2;stroke-miterlimit:10;" width="20.442" height="78.331"/>
				
					<rect x="1087.204" y="1078.631" style="fill:none;stroke:#000000;stroke-width:2;stroke-miterlimit:10;" width="21.728" height="78.331"/>
				
					<rect x="988.182" y="1078.631" style="fill:none;stroke:#000000;stroke-width:2;stroke-miterlimit:10;" width="57.657" height="78.331"/>
				
					<rect x="923.402" y="1189.372" style="fill:none;stroke:#000000;stroke-width:2;stroke-miterlimit:10;" width="20.442" height="78.331"/>
				
					<rect x="1087.204" y="1189.372" style="fill:none;stroke:#000000;stroke-width:2;stroke-miterlimit:10;" width="21.728" height="78.331"/>
				
					<rect x="988.182" y="1189.372" style="fill:none;stroke:#000000;stroke-width:2;stroke-miterlimit:10;" width="57.657" height="78.331"/>
				
					<rect x="828.337" y="1264.445" style="fill:none;stroke:#000000;stroke-width:2;stroke-miterlimit:10;" width="51.425" height="52.927"/>
				
					<rect x="1155.495" y="1263.279" style="fill:none;stroke:#000000;stroke-width:2;stroke-miterlimit:10;" width="51.425" height="52.927"/>
			</g>
		</g>
	</g>
	<g id="level1">
		<path style="fill:none;stroke:#000000;stroke-width:2;stroke-miterlimit:10;" d="M851.145,677.711l0.038-14.352l-5.229-4.275
			L848,652.5v-85.389h15.257L865,557.5V382.518l-3-3.018v-0.389h-0.946l-1.411-3.351l8.228-13.976l-2.737-1.799L872,346.5v-82.854
			c0,0-2.286-2.238-3.49-3.041s-1.423-0.602-1.423-2.007c0-1.405,6.914-13.098,6.914-13.098v-83.389h-1v-5.385l-2-2.225v-3.635
			l3-3.365v-17.339l-4-3.661V92.111h7v-66h26.684L913,28.421v10.689h20v-19h20V10.5l-0.633-2.444l4.823-5.702l3.154,5.906
			L958,10.907v9.203h49V10.5l-0.666-2.647l5.026-5.499l3.171,5.499L1012,10.907v9.203h49V10.5l-0.699-2.647l5.026-5.499l3.29,5.702
			L1066,10.907v10.203h21v17h18.684l2.316-7.273V27.5l13.001-1.389H1142v67h8V127.5l-5,2.954V149.5l4,1.816v3.184l-3,0.889v71.722h1
			V246.5l8.2,13.89l-5.2,3.01v84.1l9.899,11.693l-1.225,2.833l9.48,11.155l-2.165,3.187l-3.083-1.594l-2.906,1.948v1.777
			l0.971,1.056l-2.971,3.187V557.5l7.228,9.611H1175V652.5l5.333,6.406c0,0,1.66,4.205,0.097,4.205c-1.563,0-5.43,0-5.43,0V677.5
			l-324.945-0.285"/>
		<polygon style="fill:none;stroke:#000000;stroke-width:2;stroke-miterlimit:10;" points="1253,854.111 1253,1372.111 
			779,1372.111 779,856.111 893,856.111 893,831.013 889.308,826.898 899,816.861 899,790.111 913,790.111 913,801.111 917,801.111 
			917,794.111 947,794.111 947,801.111 951,801.111 951,790.111 967,790.111 967,801.111 972,801.111 972,794.111 1056,794.111 
			1056,801.111 1061,801.111 1061,790.111 1076,790.111 1076,801.111 1081,801.111 1081,794.111 1111,794.111 1111,801.111 
			1116,801.111 1116,790.111 1128,790.111 1128,790.68 1128,818.277 1137.715,827.331 1135,831.043 1135,854.111 		"/>
		
			<rect x="1" y="920.474" style="fill:none;stroke:#000000;stroke-width:2;stroke-miterlimit:10;" width="780.047" height="449.11"/>
		
			<rect x="1254.209" y="920.474" style="fill:none;stroke:#000000;stroke-width:2;stroke-miterlimit:10;" width="772.475" height="449.026"/>
	</g>
	<g id="blocks">
		
			<rect x="1" y="920.474" style="fill:none;stroke:#000000;stroke-width:2;stroke-miterlimit:10;" width="780.047" height="449.11"/>
		
			<rect x="1254.209" y="920.474" style="fill:none;stroke:#000000;stroke-width:2;stroke-miterlimit:10;" width="772.475" height="449.026"/>
		
			<rect x="781.047" y="777.388" style="fill:none;stroke:#000000;stroke-width:2;stroke-miterlimit:10;" width="473.161" height="592.196"/>
		<polygon style="fill:none;stroke:#000000;stroke-width:2;stroke-miterlimit:10;" points="1254.209,0.889 781.047,0.889 
			781.047,677.711 1254.209,675.862 		"/>
	</g>
</g>
<g id="Layer_1">
</g>
</svg>
