<?xml version="1.0" encoding="iso-8859-1"?>
<!-- Generator: Adobe Illustrator 19.1.0, SVG Export Plug-In . SVG Version: 6.00 Build 0)  -->
<svg version="1.1" xmlns="http://www.w3.org/2000/svg" xmlns:xlink="http://www.w3.org/1999/xlink" x="0px" y="0px"
	 viewBox="0 0 1747.15 1373.668" style="enable-background:new 0 0 1747.15 1373.668;" xml:space="preserve">
<g id="main-window">
	<rect x="1366.889" y="1046.426" style="fill:none;stroke:#D18224;" width="10.419" height="27.737"/>
	<rect x="1352.597" y="1046.426" style="fill:none;stroke:#D18224;" width="10.419" height="27.737"/>
	<rect x="1338.818" y="1046.426" style="fill:none;stroke:#D18224;" width="10.419" height="27.737"/>
	<rect x="1257.547" y="1046.426" style="fill:none;stroke:#D18224;" width="10.419" height="27.737"/>
	<rect x="1243.254" y="1046.426" style="fill:none;stroke:#D18224;" width="10.419" height="27.737"/>
	<rect x="1229.476" y="1046.426" style="fill:none;stroke:#D18224;" width="10.419" height="27.737"/>
	<rect x="1148.691" y="1046.426" style="fill:none;stroke:#D18224;" width="10.419" height="27.737"/>
	<rect x="1134.398" y="1046.426" style="fill:none;stroke:#D18224;" width="10.419" height="27.737"/>
	<rect x="1120.62" y="1046.426" style="fill:none;stroke:#D18224;" width="10.419" height="27.737"/>
	<rect x="1585.898" y="1046.426" style="fill:none;stroke:#D18224;" width="10.419" height="27.737"/>
	<rect x="1571.606" y="1046.426" style="fill:none;stroke:#D18224;" width="10.419" height="27.737"/>
	<rect x="1557.827" y="1046.426" style="fill:none;stroke:#D18224;" width="10.419" height="27.737"/>
	<rect x="1476.062" y="1046.426" style="fill:none;stroke:#D18224;" width="10.419" height="27.737"/>
	<rect x="1461.769" y="1046.426" style="fill:none;stroke:#D18224;" width="10.419" height="27.737"/>
	<rect x="1447.991" y="1046.426" style="fill:none;stroke:#D18224;" width="10.419" height="27.737"/>
	<rect x="356.29" y="1045.926" style="fill:none;stroke:#D18224;" width="10.419" height="27.737"/>
	<rect x="370.583" y="1045.926" style="fill:none;stroke:#D18224;" width="10.419" height="27.737"/>
	<rect x="384.362" y="1045.926" style="fill:none;stroke:#D18224;" width="10.419" height="27.737"/>
	<rect x="465.633" y="1045.926" style="fill:none;stroke:#D18224;" width="10.419" height="27.737"/>
	<rect x="479.925" y="1045.926" style="fill:none;stroke:#D18224;" width="10.419" height="27.737"/>
	<rect x="493.704" y="1045.926" style="fill:none;stroke:#D18224;" width="10.419" height="27.737"/>
	<rect x="574.489" y="1045.926" style="fill:none;stroke:#D18224;" width="10.419" height="27.737"/>
	<rect x="588.781" y="1045.926" style="fill:none;stroke:#D18224;" width="10.419" height="27.737"/>
	<rect x="602.56" y="1045.926" style="fill:none;stroke:#D18224;" width="10.419" height="27.737"/>
	<rect x="137.282" y="1045.926" style="fill:none;stroke:#D18224;" width="10.419" height="27.737"/>
	<rect x="151.574" y="1045.926" style="fill:none;stroke:#D18224;" width="10.419" height="27.737"/>
	<rect x="165.353" y="1045.926" style="fill:none;stroke:#D18224;" width="10.419" height="27.737"/>
	<rect x="247.118" y="1045.926" style="fill:none;stroke:#D18224;" width="10.419" height="27.737"/>
	<rect x="261.41" y="1045.926" style="fill:none;stroke:#D18224;" width="10.419" height="27.737"/>
	<rect x="275.189" y="1045.926" style="fill:none;stroke:#D18224;" width="10.419" height="27.737"/>
	<rect x="123.793" y="1273.612" style="fill:none;stroke:#D18224;" width="30.212" height="66.551"/>
	<rect x="161.865" y="1273.612" style="fill:none;stroke:#D18224;" width="33.844" height="66.551"/>
	<rect x="230.275" y="1274.112" style="fill:none;stroke:#D18224;" width="33.844" height="66.551"/>
	<rect x="270.861" y="1274.112" style="fill:none;stroke:#D18224;" width="33.844" height="66.551"/>
	<rect x="340.078" y="1272.748" style="fill:none;stroke:#D18224;" width="33.844" height="66.551"/>
	<rect x="380.664" y="1272.748" style="fill:none;stroke:#D18224;" width="33.844" height="66.551"/>
	<rect x="449.078" y="1274.112" style="fill:none;stroke:#D18224;" width="33.844" height="66.551"/>
	<rect x="489.664" y="1274.112" style="fill:none;stroke:#D18224;" width="33.844" height="66.551"/>
	<path style="fill:none;stroke:#D18224;" d="M343.5,1329.168h26v-49.005c0,0-3.098-3.897-13-3.897c-10.435,0-13,4.402-13,4.402
		V1329.168z"/>
	<path style="fill:none;stroke:#D18224;" d="M384.5,1329.168h26v-49.005c0,0-3.098-3.897-13-3.897c-10.435,0-13,4.402-13,4.402
		V1329.168z"/>
	<path style="fill:none;stroke:#D18224;" d="M452.5,1329.168h26v-49.005c0,0-3.098-3.897-13-3.897c-10.435,0-13,4.402-13,4.402
		V1329.168z"/>
	<path style="fill:none;stroke:#D18224;" d="M493.5,1329.168h26v-49.005c0,0-3.098-3.897-13-3.897c-10.435,0-13,4.402-13,4.402
		V1329.168z"/>
	<path style="fill:none;stroke:#D18224;" d="M233.5,1329.168h26v-49.005c0,0-3.098-3.897-13-3.897c-10.435,0-13,4.402-13,4.402
		V1329.168z"/>
	<path style="fill:none;stroke:#D18224;" d="M274.5,1329.168h26v-49.005c0,0-3.098-3.897-13-3.897c-10.435,0-13,4.402-13,4.402
		V1329.168z"/>
	<path style="fill:none;stroke:#D18224;" d="M124.5,1329.168h26v-49.005c0,0-3.098-3.897-13-3.897c-10.435,0-13,4.402-13,4.402
		V1329.168z"/>
	<path style="fill:none;stroke:#D18224;" d="M165.5,1329.168h26v-49.005c0,0-3.098-3.897-13-3.897c-10.435,0-13,4.402-13,4.402
		V1329.168z"/>
	<rect x="345.5" y="1176.168" style="fill:none;stroke:#D18224;" width="15" height="41"/>
	<rect x="392.5" y="1176.168" style="fill:none;stroke:#D18224;" width="14" height="41"/>
	<rect x="364.5" y="1176.168" style="fill:none;stroke:#D18224;" width="23" height="41"/>
	<path style="fill:none;stroke:#D18224;" d="M406.5,1172.168h-15v-17.922c0,0,8,1.229,15,9.208V1172.168z"/>
	<path style="fill:none;stroke:#D18224;" d="M364.5,1172.168h23v-17.588c0,0-4.019-4.775-11.5-4.775c-7.426,0-11.5,4.671-11.5,4.671
		V1172.168z"/>
	<path style="fill:none;stroke:#D18224;" d="M338.5,1156.879v69.289h77v-69.289c0,0-24.755-17.891-38.5-17.891
		S338.5,1156.879,338.5,1156.879z"/>
	<path style="fill:none;stroke:#D18224;" d="M345.5,1172.168h15v-17.922c0,0-8,1.229-15,9.208V1172.168z"/>
	<rect x="455.5" y="1176.168" style="fill:none;stroke:#D18224;" width="15" height="41"/>
	<rect x="502.5" y="1176.168" style="fill:none;stroke:#D18224;" width="14" height="41"/>
	<rect x="474.5" y="1176.168" style="fill:none;stroke:#D18224;" width="23" height="41"/>
	<path style="fill:none;stroke:#D18224;" d="M516.5,1172.168h-15v-17.922c0,0,8,1.229,15,9.208V1172.168z"/>
	<path style="fill:none;stroke:#D18224;" d="M474.5,1172.168h23v-17.588c0,0-4.019-4.775-11.5-4.775c-7.426,0-11.5,4.671-11.5,4.671
		V1172.168z"/>
	<path style="fill:none;stroke:#D18224;" d="M448.5,1156.879v69.289h77v-69.289c0,0-24.755-17.891-38.5-17.891
		S448.5,1156.879,448.5,1156.879z"/>
	<path style="fill:none;stroke:#D18224;" d="M455.5,1172.168h15v-17.922c0,0-8,1.229-15,9.208V1172.168z"/>
	<rect x="564.5" y="1176.168" style="fill:none;stroke:#D18224;" width="15" height="41"/>
	<rect x="611.5" y="1176.168" style="fill:none;stroke:#D18224;" width="14" height="41"/>
	<rect x="583.5" y="1176.168" style="fill:none;stroke:#D18224;" width="23" height="41"/>
	<path style="fill:none;stroke:#D18224;" d="M625.5,1172.168h-15v-17.922c0,0,8,1.229,15,9.208V1172.168z"/>
	<path style="fill:none;stroke:#D18224;" d="M583.5,1172.168h23v-17.588c0,0-4.019-4.775-11.5-4.775c-7.426,0-11.5,4.671-11.5,4.671
		V1172.168z"/>
	<path style="fill:none;stroke:#D18224;" d="M557.5,1156.879v69.289h77v-69.289c0,0-24.755-17.891-38.5-17.891
		S557.5,1156.879,557.5,1156.879z"/>
	<path style="fill:none;stroke:#D18224;" d="M564.5,1172.168h15v-17.922c0,0-8,1.229-15,9.208V1172.168z"/>
	<rect x="236.5" y="1176.168" style="fill:none;stroke:#D18224;" width="15" height="41"/>
	<rect x="283.5" y="1176.168" style="fill:none;stroke:#D18224;" width="14" height="41"/>
	<rect x="255.5" y="1176.168" style="fill:none;stroke:#D18224;" width="23" height="41"/>
	<path style="fill:none;stroke:#D18224;" d="M297.5,1172.168h-15v-17.922c0,0,8,1.229,15,9.208V1172.168z"/>
	<path style="fill:none;stroke:#D18224;" d="M255.5,1172.168h23v-17.588c0,0-4.019-4.775-11.5-4.775c-7.426,0-11.5,4.671-11.5,4.671
		V1172.168z"/>
	<path style="fill:none;stroke:#D18224;" d="M229.5,1156.879v69.289h77v-69.289c0,0-24.755-17.891-38.5-17.891
		C254.255,1138.988,229.5,1156.879,229.5,1156.879z"/>
	<path style="fill:none;stroke:#D18224;" d="M236.5,1172.168h15v-17.922c0,0-8,1.229-15,9.208V1172.168z"/>
	<rect x="1109.5" y="1176.168" style="fill:none;stroke:#D18224;" width="15" height="41"/>
	<rect x="1156.5" y="1176.168" style="fill:none;stroke:#D18224;" width="14" height="41"/>
	<rect x="1128.5" y="1176.168" style="fill:none;stroke:#D18224;" width="23" height="41"/>
	<path style="fill:none;stroke:#D18224;" d="M1170.5,1172.168h-15v-17.922c0,0,8,1.229,15,9.208V1172.168z"/>
	<path style="fill:none;stroke:#D18224;" d="M1128.5,1172.168h23v-17.588c0,0-4.019-4.775-11.5-4.775
		c-7.426,0-11.5,4.671-11.5,4.671V1172.168z"/>
	<path style="fill:none;stroke:#D18224;" d="M1102.5,1156.879v69.289h77v-69.289c0,0-24.755-17.891-38.5-17.891
		S1102.5,1156.879,1102.5,1156.879z"/>
	<path style="fill:none;stroke:#D18224;" d="M1109.5,1172.168h15v-17.922c0,0-8,1.229-15,9.208V1172.168z"/>
	<rect x="1218.5" y="1176.168" style="fill:none;stroke:#D18224;" width="15" height="41"/>
	<rect x="1265.5" y="1176.168" style="fill:none;stroke:#D18224;" width="14" height="41"/>
	<rect x="1237.5" y="1176.168" style="fill:none;stroke:#D18224;" width="23" height="41"/>
	<path style="fill:none;stroke:#D18224;" d="M1279.5,1172.168h-15v-17.922c0,0,8,1.229,15,9.208V1172.168z"/>
	<path style="fill:none;stroke:#D18224;" d="M1237.5,1172.168h23v-17.588c0,0-4.019-4.775-11.5-4.775
		c-7.426,0-11.5,4.671-11.5,4.671V1172.168z"/>
	<path style="fill:none;stroke:#D18224;" d="M1211.5,1156.879v69.289h77v-69.289c0,0-24.755-17.891-38.5-17.891
		S1211.5,1156.879,1211.5,1156.879z"/>
	<path style="fill:none;stroke:#D18224;" d="M1218.5,1172.168h15v-17.922c0,0-8,1.229-15,9.208V1172.168z"/>
	<rect x="1327.5" y="1176.168" style="fill:none;stroke:#D18224;" width="15" height="41"/>
	<rect x="1374.5" y="1176.168" style="fill:none;stroke:#D18224;" width="14" height="41"/>
	<rect x="1346.5" y="1176.168" style="fill:none;stroke:#D18224;" width="23" height="41"/>
	<path style="fill:none;stroke:#D18224;" d="M1388.5,1172.168h-15v-17.922c0,0,8,1.229,15,9.208V1172.168z"/>
	<path style="fill:none;stroke:#D18224;" d="M1346.5,1172.168h23v-17.588c0,0-4.019-4.775-11.5-4.775
		c-7.426,0-11.5,4.671-11.5,4.671V1172.168z"/>
	<path style="fill:none;stroke:#D18224;" d="M1320.5,1156.879v69.289h77v-69.289c0,0-24.755-17.891-38.5-17.891
		S1320.5,1156.879,1320.5,1156.879z"/>
	<path style="fill:none;stroke:#D18224;" d="M1327.5,1172.168h15v-17.922c0,0-8,1.229-15,9.208V1172.168z"/>
	<rect x="1436.5" y="1176.168" style="fill:none;stroke:#D18224;" width="15" height="41"/>
	<rect x="1483.5" y="1176.168" style="fill:none;stroke:#D18224;" width="14" height="41"/>
	<rect x="1455.5" y="1176.168" style="fill:none;stroke:#D18224;" width="23" height="41"/>
	<path style="fill:none;stroke:#D18224;" d="M1497.5,1172.168h-15v-17.922c0,0,8,1.229,15,9.208V1172.168z"/>
	<path style="fill:none;stroke:#D18224;" d="M1455.5,1172.168h23v-17.588c0,0-4.019-4.775-11.5-4.775
		c-7.426,0-11.5,4.671-11.5,4.671V1172.168z"/>
	<path style="fill:none;stroke:#D18224;" d="M1429.5,1156.879v69.289h77v-69.289c0,0-24.755-17.891-38.5-17.891
		S1429.5,1156.879,1429.5,1156.879z"/>
	<path style="fill:none;stroke:#D18224;" d="M1436.5,1172.168h15v-17.922c0,0-8,1.229-15,9.208V1172.168z"/>
	<rect x="1545.5" y="1176.168" style="fill:none;stroke:#D18224;" width="15" height="41"/>
	<rect x="1592.5" y="1176.168" style="fill:none;stroke:#D18224;" width="14" height="41"/>
	<rect x="1564.5" y="1176.168" style="fill:none;stroke:#D18224;" width="23" height="41"/>
	<path style="fill:none;stroke:#D18224;" d="M1606.5,1172.168h-15v-17.922c0,0,8,1.229,15,9.208V1172.168z"/>
	<path style="fill:none;stroke:#D18224;" d="M1564.5,1172.168h23v-17.588c0,0-4.019-4.775-11.5-4.775
		c-7.426,0-11.5,4.671-11.5,4.671V1172.168z"/>
	<path style="fill:none;stroke:#D18224;" d="M1538.5,1156.879v69.289h77v-69.289c0,0-24.755-17.891-38.5-17.891
		S1538.5,1156.879,1538.5,1156.879z"/>
	<path style="fill:none;stroke:#D18224;" d="M1545.5,1172.168h15v-17.922c0,0-8,1.229-15,9.208V1172.168z"/>
	<rect x="1212.078" y="1273.748" style="fill:none;stroke:#D18224;" width="33.844" height="66.551"/>
	<rect x="1252.664" y="1273.748" style="fill:none;stroke:#D18224;" width="33.844" height="66.551"/>
	<path style="fill:none;stroke:#D18224;" d="M1215.5,1330.168h26v-49.005c0,0-3.098-3.897-13-3.897c-10.435,0-13,4.402-13,4.402
		V1330.168z"/>
	<path style="fill:none;stroke:#D18224;" d="M1256.5,1330.168h26v-49.005c0,0-3.098-3.897-13-3.897c-10.435,0-13,4.402-13,4.402
		V1330.168z"/>
	<rect x="1322.078" y="1273.748" style="fill:none;stroke:#D18224;" width="33.844" height="66.551"/>
	<rect x="1362.664" y="1273.748" style="fill:none;stroke:#D18224;" width="33.844" height="66.551"/>
	<path style="fill:none;stroke:#D18224;" d="M1325.5,1330.168h26v-49.005c0,0-3.098-3.897-13-3.897c-10.435,0-13,4.402-13,4.402
		V1330.168z"/>
	<path style="fill:none;stroke:#D18224;" d="M1366.5,1330.168h26v-49.005c0,0-3.098-3.897-13-3.897c-10.435,0-13,4.402-13,4.402
		V1330.168z"/>
	<rect x="1430.078" y="1273.748" style="fill:none;stroke:#D18224;" width="33.844" height="66.551"/>
	<rect x="1470.664" y="1273.748" style="fill:none;stroke:#D18224;" width="33.844" height="66.551"/>
	<path style="fill:none;stroke:#D18224;" d="M1433.5,1330.168h26v-49.005c0,0-3.098-3.897-13-3.897c-10.435,0-13,4.402-13,4.402
		V1330.168z"/>
	<path style="fill:none;stroke:#D18224;" d="M1474.5,1330.168h26v-49.005c0,0-3.098-3.897-13-3.897c-10.435,0-13,4.402-13,4.402
		V1330.168z"/>
	<rect x="1540.078" y="1273.748" style="fill:none;stroke:#D18224;" width="33.844" height="66.551"/>
	<rect x="1580.664" y="1273.748" style="fill:none;stroke:#D18224;" width="33.844" height="66.551"/>
	<path style="fill:none;stroke:#D18224;" d="M1543.5,1330.168h26v-49.005c0,0-3.098-3.897-13-3.897c-10.435,0-13,4.402-13,4.402
		V1330.168z"/>
	<path style="fill:none;stroke:#D18224;" d="M1584.5,1330.168h26v-49.005c0,0-3.098-3.897-13-3.897c-10.435,0-13,4.402-13,4.402
		V1330.168z"/>
	<rect x="127.5" y="1176.168" style="fill:none;stroke:#D18224;" width="15" height="41"/>
	<rect x="174.5" y="1176.168" style="fill:none;stroke:#D18224;" width="14" height="41"/>
	<rect x="146.5" y="1176.168" style="fill:none;stroke:#D18224;" width="23" height="41"/>
	<path style="fill:none;stroke:#D18224;" d="M188.5,1172.168h-15v-17.922c0,0,8,1.229,15,9.208V1172.168z"/>
	<path style="fill:none;stroke:#D18224;" d="M146.5,1172.168h23v-17.588c0,0-4.019-4.775-11.5-4.775c-7.426,0-11.5,4.671-11.5,4.671
		V1172.168z"/>
	<path style="fill:none;stroke:#D18224;" d="M120.5,1156.879v69.289h77v-69.289c0,0-24.755-17.891-38.5-17.891
		S120.5,1156.879,120.5,1156.879z"/>
	<path style="fill:none;stroke:#D18224;" d="M127.5,1172.168h15v-17.922c0,0-8,1.229-15,9.208V1172.168z"/>
	<rect x="0.5" y="0.5" style="fill:none;stroke:#000000;stroke-miterlimit:10;" width="1746.15" height="1372.668"/>
</g>
<g id="Layer_1">
</g>
</svg>
