<?xml version="1.0" encoding="utf-8"?>
<!-- Generator: Adobe Illustrator 14.0.0, SVG Export Plug-In . SVG Version: 6.00 Build 43363)  -->
<!DOCTYPE svg PUBLIC "-//W3C//DTD SVG 1.1//EN" "http://www.w3.org/Graphics/SVG/1.1/DTD/svg11.dtd">
<svg version="1.1" id="Layer_1" xmlns="http://www.w3.org/2000/svg" xmlns:xlink="http://www.w3.org/1999/xlink" x="0px" y="0px"
	 width="217.5px" height="300px" viewBox="0 0 217.5 300" enable-background="new 0 0 217.5 300" xml:space="preserve">
<path fill="#010101" d="M134.95,159.34c-6.236-14.089-16.122-22.788-27.834-24.491c-3.208-0.47-6.396-0.361-9.542,0.218
	l-1.235-41.724c-0.039-1.321-1.115-2.413-2.459-2.322c-1.321,0.04-2.364,1.14-2.322,2.46l1.27,42.861
	c-3.374,1.171-6.646,2.919-9.786,5.161l-8.468-30.554c-0.354-1.271-1.655-2.028-2.943-1.669c-1.276,0.359-2.019,1.674-1.67,2.945
	l8.927,32.202c0.03,0.106,0.13,0.155,0.169,0.246c-2.316,2.052-4.534,4.37-6.627,6.943l-12.559-17.812
	c-0.76-1.083-2.262-1.336-3.332-0.58c-1.078,0.769-1.335,2.257-0.574,3.338l13.441,19.06c-1.933,2.771-3.756,5.74-5.4,8.933
	l-14.748-8.793c-1.125-0.662-2.598-0.302-3.277,0.832c-0.675,1.137-0.304,2.606,0.828,3.284l15.136,9.019
	c-3.544,7.91-6.194,16.828-7.599,26.413c-2.575,17.627-0.656,34.875,5.402,48.56c6.241,14.084,16.127,22.778,27.828,24.487
	c1.406,0.204,2.805,0.309,4.2,0.309c4.558,0,9.032-1.105,13.338-3.089c-15.505,15.104-30.217,19.618-30.445,19.688
	c-1.268,0.371-1.993,1.694-1.631,2.96c0.306,1.047,1.262,1.729,2.298,1.729c0.22,0,0.443-0.03,0.662-0.096
	c1.301-0.374,26.919-8.171,46.882-38.196c-13.184,31.5-35.722,43.688-35.997,43.831c-1.17,0.612-1.623,2.059-1.011,3.225
	c0.425,0.816,1.256,1.283,2.124,1.283c0.368,0,0.748-0.082,1.095-0.269c1.435-0.741,34.785-18.661,45.012-68.532
	c2.867-7.113,5.023-14.946,6.247-23.3C142.927,190.268,141.014,173.025,134.95,159.34z"/>
<path fill="#FFFFFF" d="M135.801,207.233c-4.936,33.708-26.144,58.513-47.38,55.385c-21.237-3.096-34.457-32.94-29.526-66.645
	c4.932-33.708,26.146-58.509,47.382-55.393C127.518,143.686,140.734,173.53,135.801,207.233z"/>
<g>
	<path fill="#010101" d="M88.573,227.906c-0.858,0-1.724-0.104-2.585-0.308c-5.838-1.399-10.417-7.47-11.146-14.762
		c-1.384-13.922,4.615-27.791,4.869-28.368c1.129-2.582,4.123-3.759,6.715-2.621c2.575,1.126,3.756,4.13,2.629,6.711
		c-0.049,0.119-5.176,12.056-4.061,23.267c0.334,3.373,2.167,5.564,3.365,5.848c0.876,0.195,2.021-1.052,2.814-2.287
		c3.302-5.166,2.62-12.864,1.962-20.306c-0.188-2.112-0.369-4.165-0.459-6.097c-0.127-2.822,2.048-5.202,4.863-5.331
		c2.8-0.086,5.201,2.047,5.331,4.861c0.079,1.803,0.253,3.707,0.428,5.67c0.772,8.719,1.649,18.603-3.528,26.693
		C96.877,225.406,92.823,227.906,88.573,227.906L88.573,227.906z"/>
</g>
<path fill="#010101" d="M7.443,131.083c-0.338,0-0.682-0.031-1.027-0.095c-3.024-0.564-5.02-3.474-4.456-6.498
	c4.41-23.667,17.365-53.083,33.81-76.768C46.866,31.743,69.299,4.594,94.886,2.324c14.909-1.329,35.916,5.614,51.25,46.194
	c1.088,2.878-0.363,6.093-3.242,7.18c-2.875,1.087-6.093-0.362-7.181-3.242c-10.329-27.331-23.736-40.47-39.842-39.036
	c-15.389,1.367-33.958,16.185-50.949,40.656c-15.604,22.475-27.868,50.237-32.009,72.456
	C12.415,129.211,10.073,131.083,7.443,131.083L7.443,131.083z"/>
<path fill="#010101" d="M31.917,139.415c-0.254,0-0.511-0.022-0.771-0.071c-2.269-0.422-3.766-2.605-3.343-4.874
	c6.522-34.99,38.668-88.888,69.71-91.642c11.188-0.99,26.943,4.213,38.448,34.653c0.815,2.159-0.273,4.57-2.434,5.387
	c-2.157,0.816-4.569-0.274-5.385-2.431c-7.749-20.504-17.816-30.375-29.889-29.283c-11.544,1.023-25.475,12.14-38.221,30.497
	c-11.705,16.858-20.906,37.684-24.013,54.352C35.646,138.012,33.89,139.415,31.917,139.415L31.917,139.415z"/>
</svg>
