<?xml version="1.0" encoding="utf-8"?>
<!-- Generator: Adobe Illustrator 14.0.0, SVG Export Plug-In . SVG Version: 6.00 Build 43363)  -->
<!DOCTYPE svg PUBLIC "-//W3C//DTD SVG 1.1//EN" "http://www.w3.org/Graphics/SVG/1.1/DTD/svg11.dtd">
<svg version="1.1" id="Layer_1" xmlns="http://www.w3.org/2000/svg" xmlns:xlink="http://www.w3.org/1999/xlink" x="0px" y="0px"
	 width="344.5px" height="300px" viewBox="0 0 344.5 300" enable-background="new 0 0 344.5 300" xml:space="preserve">
<g>
	<path fill="#231F20" d="M249.366,252.469c-55.994,52.599-144.029,49.842-196.625-6.15C0.143,190.322,2.895,102.29,58.891,49.69
		S202.92-0.154,255.52,55.842C308.114,111.834,305.362,199.869,249.366,252.469z"/>
	<path fill="#FFFFFF" d="M245.179,235.081c-48.404,45.467-124.504,43.089-169.973-5.317C29.74,181.362,32.121,105.26,80.524,59.793
		c48.404-45.469,124.505-43.087,169.972,5.315C295.966,113.514,293.582,189.613,245.179,235.081z"/>
	<circle fill="#010101" cx="177.705" cy="147.902" r="96.674"/>
	<path fill="#FFFFFF" d="M233.473,206.544c-30.949,22.825-74.54,16.241-97.366-14.708c-22.826-30.955-16.238-74.542,14.707-97.37
		c30.956-22.825,74.542-16.24,97.372,14.71C271.007,140.128,264.423,183.72,233.473,206.544z"/>
	<path fill="#231F20" d="M229.035,190.027c-16.289,12.019-39.228,8.545-51.239-7.744c-12.019-16.285-8.547-39.229,7.741-51.242
		c16.286-12.015,39.235-8.545,51.245,7.74C248.796,155.078,245.326,178.012,229.035,190.027z"/>
</g>
</svg>
