<?xml version="1.0" encoding="utf-8"?>
<!-- Generator: Adobe Illustrator 14.0.0, SVG Export Plug-In . SVG Version: 6.00 Build 43363)  -->
<!DOCTYPE svg PUBLIC "-//W3C//DTD SVG 1.1//EN" "http://www.w3.org/Graphics/SVG/1.1/DTD/svg11.dtd">
<svg version="1.1" id="Layer_1" xmlns="http://www.w3.org/2000/svg" xmlns:xlink="http://www.w3.org/1999/xlink" x="0px" y="0px"
	 width="344.5px" height="300px" viewBox="0 0 344.5 300" enable-background="new 0 0 344.5 300" xml:space="preserve">
<circle fill="#231F20" cx="159.449" cy="148.788" r="136.051"/>
<circle fill="#FFFFFF" cx="167.145" cy="152.637" r="117.471"/>
<path fill="#231F20" d="M251.183,140.995c0-5.177-36.064-9.438-82.374-9.98c-0.542-46.313-4.803-82.376-9.98-82.376
	c-5.179,0-9.441,36.062-9.982,82.376c-46.31,0.542-82.374,4.803-82.374,9.98c0,5.176,36.064,9.438,82.374,9.979
	c0.541,46.314,4.803,82.376,9.982,82.376c5.178,0,9.439-36.062,9.98-82.376C215.118,150.433,251.183,146.17,251.183,140.995z"/>
</svg>
