<?xml version="1.0" encoding="utf-8"?>
<!-- Generator: Adobe Illustrator 14.0.0, SVG Export Plug-In . SVG Version: 6.00 Build 43363)  -->
<!DOCTYPE svg PUBLIC "-//W3C//DTD SVG 1.1//EN" "http://www.w3.org/Graphics/SVG/1.1/DTD/svg11.dtd">
<svg version="1.1" id="Layer_1" xmlns="http://www.w3.org/2000/svg" xmlns:xlink="http://www.w3.org/1999/xlink" x="0px" y="0px"
	 width="217.5px" height="300px" viewBox="0 0 217.5 300" enable-background="new 0 0 217.5 300" xml:space="preserve">
<path fill="#FFFFFF" d="M80.087,206.657c13.693,52.308,52.034,87.573,85.614,78.765c33.575-8.797,49.67-58.341,35.957-110.64
	c-13.715-52.293-52.036-87.565-85.614-78.765C82.467,104.823,66.373,154.339,80.087,206.657z"/>
<path fill="#231F20" d="M5.423,103.841l65.396,30.522c-6.388,21.285-6.955,47.375,0.186,74.666
	c13.235,50.475,48.629,87.113,84.184,87.113c4.359,0,8.717-0.559,12.89-1.657c19.446-5.091,34.441-21.128,42.259-45.177
	c7.324-22.587,7.47-49.894,0.364-76.908c-13.216-50.467-48.607-87.104-84.146-87.104c-4.377,0-8.718,0.558-12.889,1.646
	c-5.859,1.538-11.062,4.302-15.968,7.644l-57.8-75.102c-3.153-4.121-9.011-4.88-13.149-1.704c-4.101,3.148-4.852,9.034-1.699,13.144
	l59.135,76.815c-2.235,2.914-4.431,5.87-6.26,9.239L13.333,86.851c-4.687-2.168-10.253-0.154-12.45,4.533
	C-1.314,96.079,0.735,101.655,5.423,103.841z M118.424,105.078c2.637-0.686,5.365-1.034,8.132-1.034
	c26.712,0,55.109,31.438,66.021,73.117c6.189,23.581,6.152,47.144-0.071,66.361c-5.788,17.751-16.15,29.414-29.186,32.827
	c-28.16,7.47-62.124-26.062-74.168-72.072C76.973,157.864,90.395,112.44,118.424,105.078z"/>
<path fill="#231F20" d="M106.23,211.049c2.418,15.382,12.889,26.514,23.438,24.884c10.545-1.647,17.153-15.451,14.756-30.831
	c-2.382-15.379-12.89-26.53-23.437-24.883C110.444,181.867,103.852,195.671,106.23,211.049z"/>
</svg>
