<?xml version="1.0" encoding="utf-8"?>
<!-- Generator: Adobe Illustrator 14.0.0, SVG Export Plug-In . SVG Version: 6.00 Build 43363)  -->
<!DOCTYPE svg PUBLIC "-//W3C//DTD SVG 1.1//EN" "http://www.w3.org/Graphics/SVG/1.1/DTD/svg11.dtd">
<svg version="1.1" id="Layer_1" xmlns="http://www.w3.org/2000/svg" xmlns:xlink="http://www.w3.org/1999/xlink" x="0px" y="0px"
	 width="217.5px" height="300px" viewBox="0 0 217.5 300" enable-background="new 0 0 217.5 300" xml:space="preserve">
<path fill="#FFFFFF" d="M195.455,202.879c-3.226,48.762-45.365,85.68-94.124,82.457c-48.763-3.221-85.68-45.36-82.458-94.123
	c3.22-48.764,45.359-85.678,94.123-82.458C161.754,111.977,198.673,154.118,195.455,202.879z"/>
<path fill="#010101" d="M151.9,189.469c-1.535,23.22-21.603,40.801-44.823,39.266c-23.218-1.533-40.796-21.6-39.262-44.819
	c1.532-23.219,21.599-40.799,44.819-39.264C135.854,146.184,153.43,166.252,151.9,189.469z"/>
<path fill="#FFFFFF" d="M130.234,183.645c-0.539,8.127-7.562,14.278-15.687,13.741c-8.126-0.538-14.28-7.559-13.742-15.687
	c0.537-8.125,7.556-14.275,15.687-13.742C124.617,168.495,130.766,175.52,130.234,183.645z"/>
<g>
	<path fill="#010101" d="M35.439,150.515c-0.793-0.053-1.581-0.316-2.279-0.809L5.872,130.47c-2.018-1.421-2.499-4.208-1.078-6.227
		c1.421-2.019,4.209-2.502,6.227-1.079l27.292,19.238c2.019,1.421,2.499,4.211,1.076,6.229
		C38.458,149.953,36.942,150.614,35.439,150.515L35.439,150.515z"/>
</g>
<g>
	<path fill="#010101" d="M63.281,125.794c-1.357-0.089-2.656-0.793-3.457-2.018L42.519,97.195c-1.346-2.07-0.76-4.837,1.308-6.183
		c2.067-1.348,4.837-0.763,6.183,1.305l17.308,26.581c1.348,2.067,0.763,4.835-1.307,6.183
		C65.169,125.629,64.21,125.856,63.281,125.794L63.281,125.794z"/>
</g>
<g>
	<path fill="#010101" d="M105.833,113.13c-2.207-0.146-4.016-1.911-4.161-4.179L99.56,75.295c-0.154-2.458,1.718-4.584,4.182-4.739
		c2.458-0.152,4.586,1.715,4.741,4.182l2.113,33.652c0.155,2.461-1.717,4.586-4.182,4.741
		C106.219,113.143,106.022,113.143,105.833,113.13L105.833,113.13z"/>
</g>
<g>
	<path fill="#010101" d="M149.625,124.699c-0.651-0.044-1.309-0.232-1.917-0.579c-2.145-1.228-2.888-3.958-1.664-6.099
		l16.938-29.635c1.226-2.146,3.955-2.888,6.101-1.662c2.144,1.225,2.887,3.953,1.662,6.098l-16.939,29.636
		C152.926,123.991,151.277,124.808,149.625,124.699L149.625,124.699z"/>
</g>
<g>
	<path fill="#010101" d="M177.107,145.86c-1.36,0-2.71-0.625-3.584-1.802c-1.476-1.981-1.066-4.78,0.916-6.254l33.837-25.18
		c1.977-1.476,4.777-1.061,6.254,0.917c1.472,1.982,1.062,4.781-0.92,6.254l-33.834,25.18
		C178.975,145.572,178.037,145.86,177.107,145.86L177.107,145.86z"/>
</g>
</svg>
