<?xml version="1.0" encoding="utf-8"?>
<!-- Generator: Adobe Illustrator 14.0.0, SVG Export Plug-In . SVG Version: 6.00 Build 43363)  -->
<!DOCTYPE svg PUBLIC "-//W3C//DTD SVG 1.1//EN" "http://www.w3.org/Graphics/SVG/1.1/DTD/svg11.dtd">
<svg version="1.1" id="Layer_1" xmlns="http://www.w3.org/2000/svg" xmlns:xlink="http://www.w3.org/1999/xlink" x="0px" y="0px"
	 width="217.5px" height="300px" viewBox="0 0 217.5 300" enable-background="new 0 0 217.5 300" xml:space="preserve">
<path fill="#FFFFFF" d="M214.854,90.854c-1.522-1.938-4.319-2.273-6.26-0.752l-25.722,20.21
	c-6.373-7.218-13.886-13.357-22.222-18.157l15.233-26.282c1.233-2.133,0.506-4.858-1.622-6.091c-2.13-1.236-4.858-0.51-6.09,1.622
	L152.701,88.1c-10.82-4.851-22.724-7.571-35.117-7.684l0.361-33.398c0.025-2.459-1.95-4.478-4.412-4.503
	c-2.456-0.025-4.477,1.945-4.503,4.408l-0.361,33.625c-0.001,0.08,0.018,0.156,0.021,0.235c-0.797,0.073-1.595,0.155-2.395,0.249
	c-11.846,1.404-22.861,5.099-32.663,10.582L55.461,63.338c-1.335-2.072-4.088-2.668-6.164-1.34
	c-2.068,1.333-2.666,4.088-1.333,6.159l18.118,28.196c-8.528,5.979-15.9,13.408-21.807,21.886L7.961,97.355
	c-2.134-1.229-4.86-0.488-6.086,1.644c-1.226,2.135-0.491,4.858,1.645,6.084l36.029,20.719c-8.712,15.651-12.759,34.09-10.49,53.238
	c5.732,48.393,49.608,82.972,98,77.24c48.393-5.735,82.976-49.612,77.242-98.005c-1.816-15.334-7.466-29.277-15.871-40.994
	l25.672-20.173C216.038,95.591,216.374,92.788,214.854,90.854z"/>
<path fill="#010101" d="M54.36,138.644c2.728,23.045,23.621,39.511,46.667,36.781c23.045-2.729,39.511-23.626,36.781-46.669
	c-2.732-23.041-23.625-39.511-46.669-36.781C68.097,94.707,51.628,115.603,54.36,138.644z"/>
<path fill="#FFFFFF" d="M67.752,120.601c0.958,8.067,8.271,13.828,16.335,12.872c8.063-0.953,13.827-8.267,12.874-16.33
	c-0.958-8.067-8.267-13.829-16.333-12.874C72.562,105.224,66.798,112.537,67.752,120.601z"/>
</svg>
