<?xml version="1.0" encoding="utf-8"?>
<!-- Generator: Adobe Illustrator 14.0.0, SVG Export Plug-In . SVG Version: 6.00 Build 43363)  -->
<!DOCTYPE svg PUBLIC "-//W3C//DTD SVG 1.1//EN" "http://www.w3.org/Graphics/SVG/1.1/DTD/svg11.dtd">
<svg version="1.1" id="Layer_1" xmlns="http://www.w3.org/2000/svg" xmlns:xlink="http://www.w3.org/1999/xlink" x="0px" y="0px"
	 width="217.5px" height="300px" viewBox="0 0 217.5 300" enable-background="new 0 0 217.5 300" xml:space="preserve">
<path d="M213.514,102.581c-1.49-1.896-4.23-2.226-6.127-0.736l-25.184,19.787c-6.241-7.067-13.596-13.078-21.756-17.777
	l14.914-25.731c1.207-2.088,0.495-4.756-1.588-5.963c-2.085-1.21-4.755-0.499-5.963,1.587l-15.146,26.137
	c-10.593-4.749-22.247-7.413-34.38-7.523l0.354-32.698c0.024-2.408-1.91-4.384-4.32-4.409c-2.403-0.024-4.382,1.904-4.409,4.316
	l-0.353,32.919c-0.001,0.079,0.018,0.153,0.021,0.231c-0.781,0.071-1.562,0.152-2.344,0.245
	c-11.598,1.374-22.383,4.991-31.979,10.359l-17.79-27.684c-1.308-2.028-4.002-2.613-6.034-1.312
	c-2.025,1.305-2.61,4.002-1.305,6.029l17.737,27.605c-8.349,5.854-15.566,13.128-21.35,21.428l-35.553-20.446
	c-2.09-1.203-4.758-0.478-5.958,1.609c-1.201,2.09-0.48,4.756,1.61,5.958l35.274,20.285c-8.529,15.323-12.491,33.375-10.271,52.122
	c5.612,47.379,48.568,81.233,95.947,75.622c47.377-5.614,81.237-48.572,75.625-95.952c-1.779-15.012-7.312-28.663-15.542-40.134
	l25.135-19.751C214.674,107.22,215.003,104.476,213.514,102.581z"/>
<path fill="#FFFFFF" d="M56.383,149.371c2.671,22.561,23.126,38.682,45.689,36.009c22.563-2.672,38.683-23.13,36.011-45.69
	c-2.676-22.558-23.13-38.683-45.692-36.01C69.833,106.354,53.708,126.812,56.383,149.371z"/>
<path d="M69.495,131.705c0.938,7.898,8.097,13.538,15.993,12.603c7.896-0.934,13.538-8.093,12.604-15.988
	c-0.939-7.898-8.094-13.54-15.991-12.605C74.204,116.65,68.561,123.81,69.495,131.705z"/>
</svg>
