<?xml version="1.0" encoding="utf-8"?>
<!-- Generator: Adobe Illustrator 14.0.0, SVG Export Plug-In . SVG Version: 6.00 Build 43363)  -->
<!DOCTYPE svg PUBLIC "-//W3C//DTD SVG 1.1//EN" "http://www.w3.org/Graphics/SVG/1.1/DTD/svg11.dtd">
<svg version="1.1" id="Layer_1" xmlns="http://www.w3.org/2000/svg" xmlns:xlink="http://www.w3.org/1999/xlink" x="0px" y="0px"
	 width="217.5px" height="300px" viewBox="0 0 217.5 300" enable-background="new 0 0 217.5 300" xml:space="preserve">
<circle fill="#FFFFFF" cx="109.425" cy="164.672" r="106.444"/>
<path fill="#010101" d="M184.703,93.467c29.906,31.814,36.158,74.516,13.968,95.375c-22.192,20.861-64.424,11.98-94.331-19.834
	c-29.903-31.812-36.157-74.512-13.965-95.374C112.563,52.775,154.798,61.653,184.703,93.467z"/>
<path fill="#FFFFFF" d="M190.48,109.985c-2.248-0.556-4.722,0-6.534,1.703c-2.841,2.67-2.977,7.136-0.308,9.977
	c2.67,2.839,7.137,2.979,9.977,0.309c0.146-0.138,0.279-0.281,0.411-0.429c1.176,8.417-0.866,16.263-6.404,21.469
	c-10.865,10.213-31.041,6.4-45.063-8.517c-14.022-14.917-16.58-35.288-5.715-45.502c10.866-10.214,31.041-6.403,45.062,8.515
	C185.555,101.39,188.419,105.64,190.48,109.985z"/>
<circle fill="#010101" cx="184.748" cy="129.784" r="2.93"/>
</svg>
