<?xml version="1.0" standalone="no"?>
<!DOCTYPE svg PUBLIC "-//W3C//DTD SVG 1.1//EN" "http://www.w3.org/Graphics/SVG/1.1/DTD/svg11.dtd">
<svg width="100%" height="100%" viewBox="0 0 50 54" version="1.1" xmlns="http://www.w3.org/2000/svg" xmlns:xlink="http://www.w3.org/1999/xlink" xml:space="preserve" style="fill-rule:evenodd;clip-rule:evenodd;stroke-linejoin:round;stroke-miterlimit:1.41421;">
    <g transform="matrix(1,0,0,1,-4008,-4999)">
        <g transform="matrix(1,0,0,1,33.5748,-24.3169)">
            <path d="M3974.88,5051.46C3974.88,5051.46 3982.3,5051.46 3996.17,5051.46C3999.68,5051.46 4003.05,5050.07 4005.52,5047.59C4008,5045.11 4009.4,5041.75 4009.4,5038.24C4009.4,5031.12 4009.4,5023.78 4009.4,5023.78L4023.56,5023.78C4023.56,5023.78 4023.56,5032.42 4023.56,5042.69C4023.56,5061.34 4008.45,5076.45 3989.81,5076.45C3975.68,5076.45 3974.88,5076.45 3974.88,5076.45L3974.88,5051.46Z" style="fill:rgb(235,235,235);"/>
        </g>
    </g>
</svg>
